<svg version="1.1" width="1069" height="648" viewBox="-1 -1 1069 648" xmlns="http://www.w3.org/2000/svg" xmlns:xlink="http://www.w3.org/1999/xlink">
  <!-- Exported by Scratch - http://scratch.mit.edu/ -->
  <path id="ID0.6370694697834551" fill="#000000" stroke="none" d="M 113.500 185.750 L 228.250 185.750 L 228.250 241 L 113.500 241 L 113.500 185.750 Z " transform="matrix(6.361722946166992, 0, 0, 1.9185733795166016, -508.3, 184.6)"/>
  <path id="ID0.4792957156896591" fill="#000000" stroke="none" d="M 304 244 L 347 244 L 347 272 L 304 272 L 304 244 Z " transform="matrix(2.1627907752990723, 0, 0, 1.9642857313156128, -11.35, 11.75)"/>
  <path id="ID0.021750167943537235" fill="#000000" stroke="none" d="M 72 156 L 186 156 L 186 183 L 72 183 L 72 156 Z " transform="matrix(1.2359648942947388, 0, 0, 1.0277777910232544, 307.2, 276.8)"/>
  <path id="ID0.5856524566188455" fill="#000000" stroke="none" d="M 297 143 L 393 143 L 393 161 L 297 161 L 297 143 Z " transform="matrix(1.0833333730697632, 0, 0, 3.8791136741638184, 27.25, -159.6)"/>
  <path id="ID0.85845409007743" fill="#000000" stroke="none" d="M 476 114 L 480 114 L 480 316 L 476 316 L 476 114 Z " transform="matrix(15.75, 0, 0, 3.0096535682678223, -6689, -342.45)"/>
  <path id="ID0.85845409007743" fill="#000000" stroke="none" d="M 476 114 L 480 114 L 480 316 L 476 316 L 476 114 Z " transform="matrix(15.75, 0, 0, 3.0096535682678223, -7207.5, -321.9)"/>
  <path id="ID0.7486610454507172" fill="#000000" stroke="none" d="M 159 30 L 269 30 L 269 49 L 159 49 L 159 30 Z " transform="matrix(1, 0, 0, 1, 369, 310)"/>
  <path id="ID0.6535454466938972" fill="#000000" stroke="none" d="M 24 71 L 480 71 L 480 93 L 24 93 L 24 71 Z " transform="matrix(2.339912176132202, 0, 0, 7.454545021057129, -56.1, -496.35)"/>
  <path id="ID0.8342811902984977" fill="#000000" stroke="none" d="M 442 45 L 480 45 L 480 69 L 442 69 L 442 45 Z " transform="matrix(1, 0, 0, 1, 331, 310)"/>
</svg>