<?xml version="1.0" encoding="UTF-8" standalone="no"?>
<!-- Created with Inkscape (http://www.inkscape.org/) -->

<svg
   xmlns:dc="http://purl.org/dc/elements/1.1/"
   xmlns:cc="http://creativecommons.org/ns#"
   xmlns:rdf="http://www.w3.org/1999/02/22-rdf-syntax-ns#"
   xmlns:svg="http://www.w3.org/2000/svg"
   xmlns="http://www.w3.org/2000/svg"
   xmlns:xlink="http://www.w3.org/1999/xlink"
   xmlns:sodipodi="http://sodipodi.sourceforge.net/DTD/sodipodi-0.dtd"
   xmlns:inkscape="http://www.inkscape.org/namespaces/inkscape"
   width="210mm"
   height="297mm"
   viewBox="0 0 210 297"
   version="1.1"
   id="svg8"
   inkscape:version="0.92.1 r15371"
   sodipodi:docname="Heine574.svg">
  <defs
     id="defs2">
    <linearGradient
       inkscape:collect="always"
       id="linearGradient2062">
      <stop
         style="stop-color:#000000;stop-opacity:1;"
         offset="0"
         id="stop2058" />
      <stop
         style="stop-color:#000000;stop-opacity:0;"
         offset="1"
         id="stop2060" />
    </linearGradient>
    <inkscape:perspective
       sodipodi:type="inkscape:persp3d"
       inkscape:vp_x="-62.744046 : 152.27976 : 1"
       inkscape:vp_y="0 : 1000 : 0"
       inkscape:vp_z="267.45238 : 163.61905 : 1"
       inkscape:persp3d-origin="105 : 99 : 1"
       id="perspective10" />
    <radialGradient
       inkscape:collect="always"
       xlink:href="#linearGradient2062"
       id="radialGradient2064"
       cx="101.86457"
       cy="98.373512"
       fx="101.86457"
       fy="98.373512"
       r="43.278275"
       gradientUnits="userSpaceOnUse"
       gradientTransform="matrix(4.9650599,-0.02414997,0.01854236,3.8121953,-405.72321,-274.1855)" />
    <filter
       inkscape:collect="always"
       style="color-interpolation-filters:sRGB"
       id="filter2202"
       x="-0.12"
       width="1.24"
       y="-0.12"
       height="1.24">
      <feGaussianBlur
         inkscape:collect="always"
         stdDeviation="4.3278275"
         id="feGaussianBlur2204" />
    </filter>
  </defs>
  <sodipodi:namedview
     id="base"
     pagecolor="#ffffff"
     bordercolor="#666666"
     borderopacity="1.0"
     inkscape:pageopacity="0.0"
     inkscape:pageshadow="2"
     inkscape:zoom="0.7"
     inkscape:cx="407.39333"
     inkscape:cy="548.81469"
     inkscape:document-units="mm"
     inkscape:current-layer="layer1"
     showgrid="false"
     inkscape:snap-global="false"
     inkscape:window-width="1366"
     inkscape:window-height="705"
     inkscape:window-x="-8"
     inkscape:window-y="-8"
     inkscape:window-maximized="1" />
  <metadata
     id="metadata5">
    <rdf:RDF>
      <cc:Work
         rdf:about="">
        <dc:format>image/svg+xml</dc:format>
        <dc:type
           rdf:resource="http://purl.org/dc/dcmitype/StillImage" />
        <dc:title />
      </cc:Work>
    </rdf:RDF>
  </metadata>
  <g
     inkscape:label="Layer 1"
     inkscape:groupmode="layer"
     id="layer1">
    <g
       sodipodi:type="inkscape:box3d"
       id="g12"
       style="fill:#497200;fill-opacity:1"
       inkscape:perspectiveID="#perspective10"
       inkscape:corner0="8.4804636 : -0.040733169 : 0 : 1"
       inkscape:corner7="-0.021018686 : -0.031013079 : 7.2832223 : 1">
      <path
         sodipodi:type="inkscape:box3dside"
         id="path14"
         style="fill:#353564;fill-rule:evenodd;stroke:none;stroke-linejoin:round"
         inkscape:box3dsidetype="6"
         d="m -45.050393,154.63673 v -1.02527 l 135.771287,-8.78943 v 0.57983 z"
         points="-45.050393,153.61146 90.720894,144.82203 90.720894,145.40186 -45.050393,154.63673 " />
      <path
         sodipodi:type="inkscape:box3dside"
         id="path16"
         style="fill:#4d4d9f;fill-rule:evenodd;stroke:none;stroke-linejoin:round"
         inkscape:box3dsidetype="5"
         d="M -45.050393,154.63673 108.60146,240.75162 248.63028,146.10321 90.720894,145.40186 Z"
         points="108.60146,240.75162 248.63028,146.10321 90.720894,145.40186 -45.050393,154.63673 " />
      <path
         sodipodi:type="inkscape:box3dside"
         id="path24"
         style="fill:#e9e9ff;fill-rule:evenodd;stroke:none;stroke-linejoin:round"
         inkscape:box3dsidetype="11"
         d="m 90.720894,145.40186 157.909386,0.70135 v -1.17645 L 90.720894,144.82203 Z"
         points="248.63028,146.10321 248.63028,144.92676 90.720894,144.82203 90.720894,145.40186 " />
      <path
         sodipodi:type="inkscape:box3dside"
         id="path22"
         style="fill:#008000;fill-rule:evenodd;stroke:none;stroke-linejoin:round"
         inkscape:box3dsidetype="13"
         d="M -45.050393,153.61146 108.60146,230.82284 248.63028,144.92676 90.720894,144.82203 Z"
         points="108.60146,230.82284 248.63028,144.92676 90.720894,144.82203 -45.050393,153.61146 " />
      <path
         sodipodi:type="inkscape:box3dside"
         id="path20"
         style="fill:#007200;fill-rule:evenodd;stroke:none;stroke-linejoin:round;fill-opacity:1"
         inkscape:box3dsidetype="14"
         d="m 108.60146,240.75162 v -9.92878 l 140.02882,-85.89608 v 1.17645 z"
         points="108.60146,230.82284 248.63028,144.92676 248.63028,146.10321 108.60146,240.75162 " />
      <path
         sodipodi:type="inkscape:box3dside"
         id="path18"
         style="fill:#004700;fill-rule:evenodd;stroke:none;stroke-linejoin:round;fill-opacity:1"
         inkscape:box3dsidetype="3"
         d="m -45.050393,154.63673 153.651853,86.11489 v -9.92878 L -45.050393,153.61146 Z"
         points="108.60146,240.75162 108.60146,230.82284 -45.050393,153.61146 -45.050393,154.63673 " />
    </g>
    <g
       id="g215"
       style="fill:#000000;fill-opacity:1">
      <path
         d="M 100.03906 117.49414 C 100.47466 119.98415 99.673272 122.42989 99.501886 124.90476 C 98.336544 134.41372 97.171202 143.92268 96.005859 153.43164 C 96.873047 153.33008 97.740234 153.22852 98.607422 153.12695 C 99.283854 141.13672 99.960286 129.14648 100.63672 117.15625 C 100.1372 117.11762 99.817736 116.56861 100.03906 117.49414 z "
         style="fill:#353564;fill-rule:evenodd;stroke:none;stroke-linejoin:round"
         id="path229" />
      <path
         d="m 96.005952,153.43127 4.535718,0.24889 2.60341,-0.31662 -4.538119,-0.23645 z"
         style="fill:#afafde;fill-rule:evenodd;stroke:none;stroke-linejoin:round"
         id="path231" />
      <path
         d="M 100.63672 117.15625 C 99.960286 129.14648 99.283854 141.13672 98.607422 153.12695 C 100.11979 153.20573 101.63216 153.28451 103.14453 153.36328 C 102.7487 140.95508 102.35286 128.54687 101.95703 116.13867 C 101.51693 116.47786 101.07682 116.81706 100.63672 117.15625 z "
         style="fill:#e9e9ff;fill-rule:evenodd;stroke:none;stroke-linejoin:round"
         id="path233" />
      <path
         d="M 101.2207 116.10156 C 100.79218 116.11983 99.649234 116.77555 100.05859 117.04297 C 100.81959 117.26511 101.28494 116.41634 101.89648 116.14062 C 101.6728 116.10842 101.44664 116.0943 101.2207 116.10156 z "
         style="fill:#4d4d9f;fill-rule:evenodd;stroke:none;stroke-linejoin:round"
         id="path235" />
      <path
         d="M 101.13867 116.0918 C 101.18223 118.40144 101.39684 120.76133 100.75235 123.00707 C 100.68191 133.23128 100.61146 143.45548 100.54102 153.67969 C 101.40885 153.57422 102.27669 153.46875 103.14453 153.36328 C 102.7487 140.95508 102.35286 128.54687 101.95703 116.13867 C 101.68309 116.15477 101.41275 116.05717 101.13867 116.0918 z "
         style="fill:#d7d7ff;fill-rule:evenodd;stroke:none;stroke-linejoin:round"
         id="path237" />
      <path
         d="M 99.837891 116.92773 C 98.560547 129.0957 97.283203 141.26367 96.005859 153.43164 C 97.517578 153.51432 99.029297 153.59701 100.54102 153.67969 C 100.68685 141.14258 100.83268 128.60547 100.97852 116.06836 C 100.59831 116.35482 100.2181 116.64128 99.837891 116.92773 z "
         style="fill:#8686bf;fill-rule:evenodd;stroke:none;stroke-linejoin:round"
         id="path239" />
    </g>
    <path
       style="fill:url(#radialGradient2064);fill-opacity:1;stroke-width:0.26458332;opacity:1;fill-rule:nonzero;filter:url(#filter2202)"
       id="path127"
       r="43.278275"
       cy="98.373512"
       cx="101.86457" />
    <g
       id="g145"
       style="fill:#000000;fill-opacity:1">
      <path
         d="M 56.318359 157.84766 C 57.900391 157.66406 59.482422 157.48047 61.064453 157.29688 C 64.650391 144.11458 68.236328 130.93229 71.822266 117.75 C 70.896484 117.57096 69.970703 117.39193 69.044922 117.21289 C 64.802734 130.75781 60.560547 144.30273 56.318359 157.84766 z "
         style="fill:#353564;fill-rule:evenodd;stroke:none;stroke-linejoin:round"
         id="path159" />
      <path
         d="m 56.318453,157.84669 5.116109,0.56405 4.825445,-0.58626 -5.195441,-0.52776 z"
         style="fill:#afafde;fill-rule:evenodd;stroke:none;stroke-linejoin:round"
         id="path161" />
      <path
         d="M 71.822266 117.75 C 68.236328 130.93229 64.650391 144.11458 61.064453 157.29688 C 62.796224 157.47266 64.527995 157.64844 66.259766 157.82422 C 68.152995 144.38867 70.046224 130.95313 71.939453 117.51758 L 71.878172 117.63912 L 71.822266 117.75 z "
         style="fill:#e9e9ff;fill-rule:evenodd;stroke:none;stroke-linejoin:round"
         id="path163" />
      <path
         d="M 70.759766 116.65039 C 69.938656 117.01107 70.442211 116.96773 70.96875 116.96484 C 71.629323 117.39801 72.113504 117.74594 71.373047 116.87695 C 71.205028 116.73485 70.986527 116.61928 70.759766 116.65039 z "
         style="fill:#4d4d9f;fill-rule:evenodd;stroke:none;stroke-linejoin:round"
         id="path165" />
      <path
         d="M 70.871094 116.64062 C 70.714623 117.42388 70.578449 118.34618 70.352173 119.17064 C 67.379313 132.25048 64.406453 145.33032 61.433594 158.41016 C 63.042318 158.21484 64.651042 158.01953 66.259766 157.82422 C 68.152995 144.38867 70.046224 130.95313 71.939453 117.51758 C 71.535281 117.3047 71.32384 116.75189 70.871094 116.64062 z "
         style="fill:#d7d7ff;fill-rule:evenodd;stroke:none;stroke-linejoin:round"
         id="path167" />
      <path
         d="M 69.044922 117.21289 C 64.802734 130.75781 60.560547 144.30273 56.318359 157.84766 C 58.023437 158.03516 59.728516 158.22266 61.433594 158.41016 C 64.554687 144.44466 67.675781 130.47917 70.796875 116.51367 C 70.212891 116.74674 69.628906 116.97982 69.044922 117.21289 z "
         style="fill:#8686bf;fill-rule:evenodd;stroke:none;stroke-linejoin:round"
         id="path169" />
    </g>
    <g
       id="g187"
       style="fill:#000000;fill-opacity:1"
       transform="translate(6.047619)">
      <path
         d="m 117.75781,125.30078 c 2.50973,7.65587 4.98677,15.32606 7.26567,23.05354 0.58673,1.88597 0.84919,3.97979 2.22662,5.49174 1.41252,1.81414 2.14974,4.02498 2.57021,6.2555 0.14419,0.48896 0.56051,1.37061 -0.14453,1.61524 -1.39286,-0.65052 -1.34717,-2.14877 -2.98119,-1.53876 0.31357,-8.15289 0.25995,0.38007 2.50635,2.22988 0.91249,0.47792 0.10392,-0.16797 0.74242,0.16435 0.54477,0.26217 1.50332,0.20258 1.30273,-0.63672 -0.10094,-2.6481 -1.11633,-5.16948 -1.97269,-7.64609 -0.83723,-1.58883 -1.35364,-3.32456 -1.55437,-5.10056 -1.00819,-3.52732 -2.62367,-6.84405 -3.68905,-10.35432 -1.94164,-5.46324 -3.63158,-11.12812 -6.7956,-16.0377 -0.76586,-0.98927 -0.14353,0.51994 0.0157,0.99879 0.16924,0.5017 0.33849,1.00341 0.50773,1.50511 z"
         style="fill:#353564;fill-rule:evenodd;stroke:none;stroke-linejoin:round"
         id="path201"
         inkscape:connector-curvature="0"
         sodipodi:nodetypes="ccccccccccccccc" />
      <path
         d="m 134.08594,162.13281 c 0.0971,-0.0773 0.19526,-0.19313 0,0 z m -4.39258,0.46875 c 0.68727,0.27482 1.44878,0.64593 2.20117,0.40235 -0.87287,0.132 -1.70539,-0.24079 -2.50976,-0.52149 0.10286,0.0397 0.20572,0.0794 0.30859,0.11914 z"
         style="fill:#afafde;fill-rule:evenodd;stroke:none;stroke-linejoin:round"
         id="path203"
         inkscape:connector-curvature="0" />
      <path
         d="m 119.40234,126.37695 c 3.83399,12.20573 7.63456,23.89363 11.46855,36.09936 1.2526,-0.51107 2.13772,-0.68805 3.39032,-1.19912 -5.42318,-14.38216 -10.44545,-28.58058 -15.86863,-42.96274 0.33659,2.6875 0.67318,5.375 1.00976,8.0625 z"
         style="fill:#e9e9ff;fill-rule:evenodd;stroke:none;stroke-linejoin:round"
         id="path205"
         inkscape:connector-curvature="0"
         sodipodi:nodetypes="ccccc" />
      <path
         d="m 119.30078,117.36523 0.12305,-0.01 z m -0.24023,0 c -0.11789,0.0257 0.0791,-0.006 0,0 z m -0.48633,0.10743 0.10742,-0.0312 z m -0.67774,0.33593 c -0.33289,0.21972 0.12079,-0.051 0,0 z m -0.375,0.29688 c 0.0548,-0.0243 0.17147,-0.18008 0,0 z m -0.87109,1.36914 0.0352,-0.084 z m -0.40625,1.64648 0.006,-0.0684 z m -0.006,0.24024 0.002,-0.0703 z m 0.0527,0.43555 -0.0117,-0.0488 z m 0.22851,0.45703 c 0.0204,0.20654 0.0328,-0.0529 0,0 z m 2.50195,3.46679 c 0.24249,0.47443 -0.32403,-0.69027 0,0 z"
         style="fill:#4d4d9f;fill-rule:evenodd;stroke:none;stroke-linejoin:round"
         id="path207"
         inkscape:connector-curvature="0" />
      <path
         d="m 117.35156,118.59375 7.51199,22.78884 4.40985,12.90687 2.86722,8.67148 2.78205,-2.20347 -4.97115,-13.80036 c -3.90241,-9.51703 -7.62949,-19.10567 -11.62144,-28.58602 -0.0753,-0.0655 -0.021,-0.007 -0.11866,0.005 z"
         style="fill:#d7d7ff;fill-rule:evenodd;stroke:none;stroke-linejoin:round"
         id="path209"
         inkscape:connector-curvature="0"
         sodipodi:nodetypes="ccccccccc" />
      <path
         d="m 116.57031,122.23828 c 3.08399,13.27083 6.16797,26.54167 9.25196,39.8125 2.10612,0.30339 4.21224,0.60677 6.31835,0.91016 -4.92968,-14.78907 -9.85937,-29.57813 -14.78906,-44.36719 -0.26041,1.21484 -0.52083,2.42969 -0.78125,3.64453 z"
         style="fill:#8686bf;fill-rule:evenodd;stroke:none;stroke-linejoin:round"
         id="path211"
         inkscape:connector-curvature="0" />
    </g>
    <path
       style="fill:#aa0000;fill-opacity:1;stroke-width:0.22676598;"
       d="m 65.919335,87.962143 c 8.985709,2.2981 12.824176,3.361713 24.568452,7.218861 -5.921627,1.110594 -15.245039,2.707073 -21.922618,0.694121 -3.968751,-1.341968 -6.992559,-4.349826 -2.645834,-7.912982 z"
       id="rect243"
       inkscape:connector-curvature="0"
       sodipodi:nodetypes="cccc" />
    <path
       style="fill:#aa0000;fill-opacity:1;stroke-width:0.27177998;"
       d="m 120.20109,86.584095 c -10.15505,2.920909 -14.49303,4.272773 -27.765635,9.175251 6.692228,1.411577 17.228935,3.440716 24.775485,0.882235 4.48522,-1.705656 7.90254,-5.528677 2.99015,-10.057486 z"
       id="rect243-1"
       inkscape:connector-curvature="0"
       sodipodi:nodetypes="cccc" />
  </g>
</svg>
