<svg version="1.1" width="217" height="272" viewBox="-1 -1 217 272" xmlns="http://www.w3.org/2000/svg" xmlns:xlink="http://www.w3.org/1999/xlink">
  <defs>
    <linearGradient id="grad_1" y2="1">
      <stop offset="0" stop-color="#613700" stop-opacity="1"/>
      <stop offset="1" stop-color="#553000" stop-opacity="1"/>
    </linearGradient>
    <linearGradient id="grad_2" y2="1">
      <stop offset="0" stop-color="#CCD8FF" stop-opacity="1"/>
      <stop offset="1" stop-color="#CCD8FF" stop-opacity="0"/>
    </linearGradient>
    <linearGradient id="grad_3" y2="1">
      <stop offset="0" stop-color="#CCD8FF" stop-opacity="1"/>
      <stop offset="1" stop-color="#CCD8FF" stop-opacity="0"/>
    </linearGradient>
  </defs>
  <!-- Exported by Scratch - http://scratch.mit.edu/ -->
  <g id="ID0.24948203610256314" transform="matrix(4.465395927429199, 0, 0, 4.465395927429199, -0.3, -1.15)">
    <path id="ID0.7722679218277335" fill="url(#grad_1)" stroke="none" stroke-linecap="round" d="M 213 161.750 L 220.200 162.400 L 224.800 161.850 L 234.700 162.500 L 245.600 164.500 L 253.200 163.400 L 263.600 161.100 L 270.100 160.750 L 269.200 169 L 268.100 171.900 L 267.600 170 L 265.700 175.100 L 264.600 180 L 262.850 180.400 L 262.100 183.500 L 258.850 185.500 L 258.350 190 L 256.600 193.100 L 253.100 194.600 L 251.500 199.600 L 250.350 195.900 L 247.850 202.750 L 243.700 193.750 L 242.200 193.400 L 239.500 186.600 L 237.200 187.250 L 236.850 189.400 L 237 192.250 L 234.600 189 L 233.100 185.900 L 228.200 182.750 L 226.550 184.400 L 225.350 178.600 L 223.650 179.500 L 223.100 173.600 L 218.850 170.200 L 215.600 167.250 L 213 161.750 Z " transform="matrix(-3.6147959232330322, 0, 0, 4.868038654327393, 983.55, -716.4)"/>
    <g id="ID0.459231483284384">
      <path id="ID0.007662700489163399" fill="#99FFBB" stroke="none" stroke-linecap="round" d="M 288 80.500 L 309 99 L 323.500 89 L 360.500 106.500 L 375.500 126.500 L 251.050 125.700 L 288 80.500 Z " transform="matrix(1.329805612564087, 0, 0, 1.329805612564087, -304.85, -106.35)"/>
      <path id="ID0.5964665007777512" fill="#FFFFFF" stroke="none" stroke-linecap="round" d="M 225.900 67.150 L 232.500 59.300 L 240.900 66.800 L 247.500 72.650 L 236.100 69.500 L 228.900 70.800 L 225.900 67.150 Z " transform="matrix(1.329805612564087, 0, 0, 1.329805612564087, -231.05, -78.45)"/>
      <path id="ID0.6264040754176676" fill="#FFFFFF" stroke="none" stroke-linecap="round" d="M 268.100 67.400 L 277.250 72.150 L 280.600 75.300 L 273.400 74.300 L 271.900 75.900 L 268.600 73.500 L 265.750 73.400 L 263.400 74.150 L 260.600 75.650 L 261.100 72.800 L 268.100 67.400 Z " transform="matrix(1.329805612564087, 0, 0, 1.329805612564087, -231.05, -78.45)"/>
    </g>
    <path id="ID0.7011389513500035" fill="#006622" stroke="none" d="M 227.400 160.100 L 229.500 157.100 L 232.400 155.850 L 236.100 155.600 L 243.100 153.200 L 250.600 151.600 L 253.600 155.350 L 261.750 155.350 L 265.250 157.850 L 269.750 157.700 L 271.750 159.700 L 270.100 165.700 L 269.250 162.850 L 260.600 161.850 L 257.600 163.100 L 258.400 162 L 251.500 163.350 L 247.900 167.600 L 246.400 165 L 243.250 166.100 L 236.100 161.200 L 227.400 160.100 Z " transform="matrix(-4.868038654327393, 0, 0, 4.868038654327393, 1323, -708.45)"/>
    <path id="ID0.28201444121077657" fill="none" stroke="url(#grad_2)" stroke-width="2" stroke-linecap="round" d="M 242.500 161.300 L 242.400 195.650 " transform="matrix(-4.868038654327393, 0, 0, 4.868038654327393, 1208.15, -720.8)"/>
    <path id="ID0.6524962615221739" fill="#4F2D00" stroke="none" stroke-linecap="round" d="M 244.250 249.500 L 247.750 248.250 L 255 281.500 L 260 256.250 L 266.250 258.500 L 269 252.750 L 265 269.750 L 262.500 257.750 L 255 281.500 L 244.250 249.500 Z " transform="matrix(-1.329805612564087, 0, 0, 1.329805612564087, 427.05, -105.05)"/>
    <path id="ID0.7229285528883338" fill="#4F2D00" stroke="none" stroke-linecap="round" d="M 232.500 221.500 L 242 244.500 L 248.250 248 L 245 249.750 L 240.250 248.750 L 232.500 221.500 Z " transform="matrix(-1.329805612564087, 0, 0, 1.329805612564087, 427.05, -105.05)"/>
    <path id="ID0.7795106437988579" fill="#4F2D00" stroke="none" stroke-linecap="round" d="M 224.750 224.750 L 232.750 223 L 226.750 226 L 225.500 233.250 L 226 242.750 L 223.250 234.500 L 224.750 224.750 Z " transform="matrix(-1.329805612564087, 0, 0, 1.329805612564087, 427.05, -105.05)"/>
    <path id="ID0.31736051430925727" fill="#4F2D00" stroke="none" stroke-linecap="round" d="M 201.500 209.200 L 197 215.500 L 200.650 208.200 L 205.250 208.500 L 215.600 220.750 L 204 210.500 L 201.500 209.200 Z " transform="matrix(-1.329805612564087, 0, 0, 1.329805612564087, 427.05, -105.05)"/>
    <path id="ID0.9569753734394908" fill="#4F2D00" stroke="none" d="M 188.400 228.600 L 188.400 228.600 L 188.400 228.700 L 188.400 228.700 L 188.400 228.600 Z " transform="matrix(-1.329805612564087, 0, 0, 1.329805612564087, 427.05, -105.05)"/>
    <path id="ID0.9443353433161974" fill="#4F2D00" stroke="none" stroke-linecap="round" d="M 189.800 196.850 L 193.900 191.500 L 196.400 194 L 197.650 215.100 L 194.300 193.700 L 189.800 196.850 Z " transform="matrix(-1.329805612564087, 0, 0, 1.329805612564087, 427.05, -105.05)"/>
    <path id="ID0.767336109187454" fill="#4F2D00" stroke="none" stroke-linecap="round" d="M 175.850 162.200 L 167.850 152.350 L 191.300 176.650 L 189.750 184.500 L 189.500 197 L 188.500 176.150 L 175.850 162.200 Z " transform="matrix(-1.329805612564087, 0, 0, 1.329805612564087, 427.05, -105.05)"/>
    <path id="ID0.13699321821331978" fill="#4F2D00" stroke="none" stroke-linecap="round" d="M 269.350 252.600 L 280 244.750 L 278.600 247 L 269.350 252.600 Z " transform="matrix(-1.329805612564087, 0, 0, 1.329805612564087, 427.05, -105.05)"/>
    <path id="ID0.00046136975288391113" fill="#4F2D00" stroke="none" stroke-linecap="round" d="M 291.100 213.250 L 294.600 208.750 L 294 212.600 L 285 219.250 L 291.100 213.250 Z " transform="matrix(-1.329805612564087, 0, 0, 1.329805612564087, 427.05, -105.05)"/>
    <path id="ID0.7684218669310212" fill="#4F2D00" stroke="none" stroke-linecap="round" d="M 308.750 162.500 L 311.250 166.850 L 310.350 169.350 L 308.750 162.500 Z " transform="matrix(-1.329805612564087, 0, 0, 1.329805612564087, 427.05, -105.35)"/>
    <path id="ID0.28201444121077657" fill="none" stroke="url(#grad_3)" stroke-width="2" stroke-linecap="round" d="M 242.500 161.300 L 242.400 195.650 " transform="matrix(-4.868038654327393, 0, 0, 4.868038654327393, 1336.4, -737.75)"/>
  </g>
</svg>