<?xml version="1.0" encoding="UTF-8" standalone="no"?>
<!-- Created with Inkscape at (http://www.inkscape.org/) -->

<svg
   xmlns:dc="http://purl.org/dc/elements/1.1/"
   xmlns:cc="http://creativecommons.org/ns#"
   xmlns:rdf="http://www.w3.org/1999/02/22-rdf-syntax-ns#"
   xmlns:svg="http://www.w3.org/2000/svg"
   xmlns="http://www.w3.org/2000/svg"
   xmlns:sodipodi="http://sodipodi.sourceforge.net/DTD/sodipodi-0.dtd"
   xmlns:inkscape="http://www.inkscape.org/namespaces/inkscape"
   width="210mm"
   height="297mm"
   viewBox="0 0 210 297"
   version="1.1"
   id="svg8"
   inkscape:version="0.92.1 r15371"
   sodipodi:docname="landscape1.svg">
  <defs
     id="defs2">
    <inkscape:perspective
       sodipodi:type="inkscape:persp3d"
       inkscape:vp_x="11.22532 : 189.65951 : 1"
       inkscape:vp_y="0 : 1000 : 0"
       inkscape:vp_z="192.36021 : 181.10688 : 1"
       inkscape:persp3d-origin="105 : 99 : 1"
       id="perspective3743" />
  </defs>
  <sodipodi:namedview
     id="base"
     pagecolor="#ffffff"
     bordercolor="#666666"
     borderopacity="1.0"
     inkscape:pageopacity="0.0"
     inkscape:pageshadow="2"
     inkscape:zoom="0.087500002"
     inkscape:cx="-1551.6086"
     inkscape:cy="1306.8822"
     inkscape:document-units="mm"
     inkscape:current-layer="layer1"
     showgrid="false"
     inkscape:measure-start="0,0"
     inkscape:measure-end="0,0"
     inkscape:window-width="1366"
     inkscape:window-height="705"
     inkscape:window-x="-8"
     inkscape:window-y="-8"
     inkscape:window-maximized="1"
     inkscape:snap-global="false" />
  <metadata
     id="metadata5">
    <rdf:RDF>
      <cc:Work
         rdf:about="">
        <dc:format>image/svg+xml</dc:format>
        <dc:type
           rdf:resource="http://purl.org/dc/dcmitype/StillImage" />
        <dc:title />
      </cc:Work>
    </rdf:RDF>
  </metadata>
  <g
     inkscape:label="Layer 1"
     inkscape:groupmode="layer"
     id="layer1">
    <rect
       style="fill:#666666;stroke-width:0.26458332"
       id="rect3824"
       width="12.095239"
       height="3.0238097"
       x="-157.2381"
       y="442.14285" />
    <g
       id="g4496"
       transform="matrix(0.33336319,0,0,0.33336319,30.648387,135.88264)">
      <path
         sodipodi:nodetypes="cccccccsccccccc"
         inkscape:connector-curvature="0"
         id="rect3773"
         d="m -468.50923,13.417538 c 38.31858,16.382184 123.6292,18.254431 175.15216,34.636613 38.83639,11.389526 74.17752,-10.921456 106.02337,-7.957062 44.19192,4.017535 59.8091,-5.070676 84.57021,-8.542134 33.143016,-2.431324 64.000063,12.611682 94.2856146,7.684021 C 36.857044,22.453743 59.903657,-6.1890721 79.521299,-33.58372 90.188283,-48.389442 88.54485,-57.472407 93.46519,-74.515958 c 2.034005,-5.160959 3.541273,-5.745867 5.620882,-6.693366 2.079618,-0.947499 6.954168,1.383081 9.004448,3.101174 l -0.005,203.23657 -954.22361,0.36098 1.46251,-26.694085 c 48.17225,-20.371656 96.34449,-33.682622 151.79068,-45.228408 46.82522,-9.19223 90.41757,-21.032213 133.20171,-35.519956 33.62435,-12.1341799 53.50903,-13.6773173 91.17446,-4.629413 z"
         style="fill:#008000;stroke-width:0.21103495" />
      <path
         sodipodi:nodetypes="cccccccccccccccc"
         inkscape:connector-curvature="0"
         id="rect3773-0"
         d="m -469.97172,40.111619 c 38.31858,16.382182 123.62919,18.254429 175.15216,34.636611 38.83637,11.389525 74.17752,-10.921457 106.02339,-7.957063 44.19189,4.017535 59.80908,-5.070675 84.57021,-8.542134 33.143009,-2.431324 64.000041,12.611682 94.2856187,7.684021 C 35.394557,49.147822 58.441175,20.50501 78.058806,-6.8896362 88.72579,-21.695356 91.602317,-56.206742 96.169062,-73.74675 c 3.310318,-6.129625 7.820898,-7.797582 11.921458,-4.3614 14.76132,11.571082 33.78523,21.510098 46.98241,37.939559 18.0065,22.515153 38.84205,37.4558528 60.27748,51.233842 l -107.01339,140.757259 -955.93808,0.36099 1.46247,-26.6941 c 48.17228,-20.37166 96.3445,-33.682623 151.7907,-45.228415 46.82522,-9.19223 90.41756,-21.032213 133.20171,-35.519953 33.62436,-12.13418 53.50903,-13.677321 91.17446,-4.629413 z"
         style="fill:#502d16;stroke-width:0.21103495" />
      <path
         sodipodi:nodetypes="cccccccccccccccccccccc"
         inkscape:connector-curvature="0"
         id="rect3822"
         d="m -847.60107,152.18351 136.54988,-10.59105 176.15247,-31.77312 86.44049,15.88656 96.13908,12.35621 91.28978,7.0607 151.90599,-10.59104 L 1.563595,142.47505 109.82591,42.03756 215.35041,11.065251 316.303,53.734749 l 106.66749,78.866321 92.48551,54.63625 70.76868,79.59959 79.91258,48.39542 123.34623,40.90642 141.63407,3.46144 89.05654,-62.69137 162.2079,-22.75006 39.9079,238.1167 -2067.60499,-2.49633 z"
         style="fill:#666666;stroke-width:0.14780205" />
      <path
         sodipodi:nodetypes="ccccccccccccccccc"
         inkscape:connector-curvature="0"
         id="rect84"
         d="m 171.60118,-212.51188 c 25.15518,-19.07482 47.28654,-50.24487 72.44172,-69.31969 29.7679,-16.77914 55.00009,-27.51067 92.32751,-38.24219 54.51914,-11.33679 81.824,-19.64978 136.34314,-20.40324 25.84795,2.1079 50.62682,1.5431 77.54385,6.32371 34.68773,6.24708 49.62899,21.90097 72.03806,39.26593 43.07791,37.49926 64.23972,79.80936 79.5216,130.13756 15.1037,55.13905 11.49853,112.416254 45.3111,165.41714728 C 770.77112,37.437288 806.70848,62.44737 842.1113,72.490358 c 41.63911,7.013934 81.6746,2.802548 121.71009,-9.426923 50.54811,-17.218502 98.42351,-26.953458 148.43701,-34.015718 65.7346,-2.834643 114.3639,42.439228 123.4374,119.785443 l -139.5559,-2.08946 -272.69737,-4.17893 -323.46478,-297.73824 -368.44204,9.94135 c 7.05556,-19.90674 26.96229,-54.93254 40.06547,-67.27976 z"
         style="fill:#008000;stroke-width:0.26458332" />
      <path
         sodipodi:nodetypes="ccccccccccccccccccc"
         inkscape:connector-curvature="0"
         id="rect84-3"
         d="m 183.39721,-201.83149 c 22.75185,-19.24153 56.75389,-35.18696 79.50573,-54.42849 26.92386,-16.92579 49.74536,-27.75112 83.50651,-38.57641 49.31035,-11.43587 74.00652,-19.8215 123.31685,-20.58155 23.37845,2.12632 45.78992,1.55658 70.1353,6.37897 31.37364,6.30169 44.88741,22.09239 65.15551,39.60909 38.96224,37.82699 58.10224,80.50686 71.92408,131.2749 13.66067,55.620949 17.95947,116.422509 48.54157,169.886621 28.94365,37.091291 44.81658,47.2009 70.78938,63.37927 37.66089,17.658569 162.08795,7.740719 198.29844,-4.595619 45.71872,-17.36899 89.02022,-27.189007 134.25532,-34.312987 59.4544,-2.859418 103.4376,42.810116 111.6443,120.832325 L 1114.2474,174.92689 786.94652,171.84536 640.66609,21.675205 494.38567,-128.49495 254.45853,-142.68914 131.53571,-145.23212 c 11.29515,-18.19083 32.45068,-39.60853 51.8615,-56.59937 z"
         style="fill:#502d16;stroke-width:0.25272405" />
      <path
         sodipodi:nodetypes="ccccccccccccccccccc"
         inkscape:connector-curvature="0"
         id="rect102"
         d="m 257.79388,-152.98292 128.74302,-42.46695 122.57744,19.17277 95.31585,108.397594 108.95548,145.879918 48.38922,48.663678 74.04709,40.11105 58.01091,-7.99747 121.67781,0.1388 163.3719,11.89865 -15.1642,10.82957 -151.3731,25.72727 -121.43894,43.9016 -119.45604,0.55516 L 634.88902,111.26558 510.08759,-37.850195 448.36175,-77.920001 262.38985,-140.74384 Z"
         style="fill:#666666;stroke-width:0.26458332" />
    </g>
  </g>
</svg>
