<?xml version="1.0" encoding="UTF-8" standalone="no"?>
<!-- Created with Inkscape (http://www.inkscape.org/) -->

<svg
   xmlns:dc="http://purl.org/dc/elements/1.1/"
   xmlns:cc="http://creativecommons.org/ns#"
   xmlns:rdf="http://www.w3.org/1999/02/22-rdf-syntax-ns#"
   xmlns:svg="http://www.w3.org/2000/svg"
   xmlns="http://www.w3.org/2000/svg"
   xmlns:sodipodi="http://sodipodi.sourceforge.net/DTD/sodipodi-0.dtd"
   xmlns:inkscape="http://www.inkscape.org/namespaces/inkscape"
   width="210mm"
   height="297mm"
   viewBox="0 0 210 297"
   version="1.1"
   id="svg4602"
   inkscape:version="0.92.1 r15371"
   sodipodi:docname="back1.svg">
  <defs
     id="defs4596" />
  <sodipodi:namedview
     id="base"
     pagecolor="#ffffff"
     bordercolor="#666666"
     borderopacity="1.0"
     inkscape:pageopacity="0.0"
     inkscape:pageshadow="2"
     inkscape:zoom="0.7"
     inkscape:cx="627.09042"
     inkscape:cy="409.09173"
     inkscape:document-units="mm"
     inkscape:current-layer="layer1"
     showgrid="false"
     inkscape:window-width="1366"
     inkscape:window-height="705"
     inkscape:window-x="-8"
     inkscape:window-y="-8"
     inkscape:window-maximized="1"
     inkscape:snap-global="false"
     showguides="true"
     inkscape:guide-bbox="true">
    <sodipodi:guide
       position="23.519718,630.75609"
       orientation="0,1"
       id="guide5254"
       inkscape:locked="false" />
  </sodipodi:namedview>
  <metadata
     id="metadata4599">
    <rdf:RDF>
      <cc:Work
         rdf:about="">
        <dc:format>image/svg+xml</dc:format>
        <dc:type
           rdf:resource="http://purl.org/dc/dcmitype/StillImage" />
        <dc:title />
      </cc:Work>
    </rdf:RDF>
  </metadata>
  <g
     inkscape:label="Layer 1"
     inkscape:groupmode="layer"
     id="layer1">
    <path
       style="fill:#502d16;fill-opacity:1;stroke-width:0.09239505"
       d="m 116.41565,146.64069 c 4.71223,0.13988 7.47779,6.53554 4.58242,10.16937 -2.93697,6.49371 -9.72186,10.14924 -12.85091,16.50629 -1.8122,4.29046 -0.53263,9.05389 0.96934,13.23036 4.03273,11.01788 8.28433,21.97485 11.48732,33.27391 0.84832,3.17734 1.76495,6.3327 2.94335,9.40611 1.21746,3.55432 2.51238,7.21749 2.65993,10.98232 -1.19747,2.28709 -4.19926,2.17671 -6.36824,1.67994 -4.32544,-0.57703 -8.86988,-3.19473 -10.04354,-7.65537 -1.88317,-6.41342 -1.38107,-13.28276 -3.54192,-19.63658 -2.41789,-8.96282 -5.14847,-17.84061 -7.378031,-26.85396 -1.382657,-5.05539 -3.459557,-9.88661 -5.870406,-14.52972 -0.831116,-1.67207 -1.870228,-3.82029 -0.600082,-5.55273 1.419387,-2.26758 4.166508,-3.07986 6.658548,-3.45402 3.625631,-0.95316 7.738601,-2.2321 9.658011,-5.75213 1.81959,-3.42171 1.53573,-7.91507 4.61125,-10.6443 0.82064,-0.77346 1.9543,-1.21079 3.08296,-1.16949 z"
       id="rect4626-5"
       inkscape:connector-curvature="0"
       sodipodi:nodetypes="ccccccccccccccccccccccccccccccccccccc" />
    <path
       style="fill:#4b8800;fill-opacity:1;stroke-width:0.09239505"
       d="m 113.00404,102.77396 c 10.92785,0.0666 21.31487,4.59267 30.27227,10.57352 4.90587,2.92488 10.30446,5.84656 13.14736,11.04166 2.99411,6.1905 3.19026,13.24144 3.14781,19.9843 -0.57143,5.13373 -3.85929,9.49007 -7.67592,12.76181 -5.51138,5.5837 -12.13473,10.65792 -20.03853,12.06948 -8.43617,1.7483 -17.08255,2.03287 -25.66375,2.37991 -8.132037,0.0808 -16.352632,-0.5724 -24.201145,-2.79299 -5.867736,-1.99319 -10.388603,-6.59566 -13.774574,-11.63432 -4.481022,-5.7849 -6.225763,-13.39948 -5.312616,-20.60808 0.936654,-8.59624 4.974552,-16.55214 10.00618,-23.46 4.185716,-4.6686 10.469342,-6.45244 16.33293,-7.96415 7.768693,-1.86065 15.793365,-2.37497 23.759985,-2.35114 z"
       id="path4629-3"
       inkscape:connector-curvature="0"
       sodipodi:nodetypes="sssssssssssssssss" />
    <path
       style="fill:#502d16;fill-opacity:1;stroke-width:0.09239505"
       d="m 4.5267263,145.37245 c -2.8235697,0.45416 -5.29941726,1.96889 -7.8203897,3.22269 0.1887303,5.50168 3.15526639,10.35731 4.21963299,15.6733 1.82458551,7.20308 4.43089791,14.23678 5.43610141,21.62678 0.3271466,6.5953 -0.510995,13.26038 -2.6090222,19.52837 -1.6308161,5.27734 -3.61885624,10.4464 -5.0117313,15.79541 -0.8135713,3.52175 -1.3974498,7.13146 -2.8758953,10.45773 -0.7642767,1.89137 -1.8593423,3.62267 -2.9827568,5.3128 -0.5591161,1.08624 -0.3709759,2.69223 0.8543065,3.22838 1.6062737,0.83918 3.4526324,0.25563 5.1691655,0.33258 3.0778327,-0.098 6.4146847,-0.53615 8.8126515,-2.65109 2.1053466,-1.9068 3.0692391,-4.75578 3.2655571,-7.52806 0.612933,-3.92075 1.339652,-7.8243 2.140491,-11.70954 0.815454,-5.30658 0.851426,-10.72301 2.088787,-15.96458 1.25433,-6.29212 2.167321,-12.73126 1.585727,-19.15642 -0.475711,-6.08939 -2.13063,-11.99903 -3.909549,-17.81596 -1.617882,-5.40427 -3.1989842,-10.82031 -4.7321997,-16.24858 -0.544383,-1.64866 -1.4492411,-3.48625 -3.2148276,-4.06698 -0.136314,-0.0307 -0.2764169,-0.044 -0.4160484,-0.0368 z"
       id="rect4626"
       inkscape:connector-curvature="0"
       sodipodi:nodetypes="ccccccccccccccccccccccccccccccccccccc" />
    <path
       style="fill:#4b8800;fill-opacity:1;stroke-width:0.09239505"
       d="m 13.235823,104.09273 c -13.23485043125,0.94511 -26.690297,3.24902 -38.55326,9.46849 -7.854263,5.00243 -14.5793,12.48484 -16.949931,21.65823 -1.047552,6.94492 1.587039,13.70721 4.139213,20.02862 1.943478,4.65798 5.886924,8.51051 10.759007,9.97592 6.119574,2.47599 12.357454,4.65884 18.617149,6.74678 7.1998337,2.07193 14.8005914,3.83251 22.303193,2.44213 6.825995,-1.16366 13.620064,-3.03024 19.696971,-6.42473 6.779445,-3.59358 13.449994,-7.98559 17.941568,-14.33925 2.768353,-3.97265 5.079978,-8.74643 4.537886,-13.71299 -0.787632,-5.55159 -4.068983,-10.25769 -6.298913,-15.28509 -2.264707,-4.4584 -5.599411,-8.66374 -10.323837,-10.64363 -4.738073,-2.35874 -9.58299,-4.50251 -14.267044,-6.96783 -3.639508,-1.66802 -7.547863,-3.02295 -11.602002,-2.94665 z"
       id="path4629"
       inkscape:connector-curvature="0"
       sodipodi:nodetypes="sssssssssssssssss" />
    <path
       style="fill:#502d16;fill-opacity:1;stroke-width:0.09239505"
       d="m 65.404242,106.21586 c -7.212793,3.20045 -6.521897,15.0846 0.549051,18.05045 4.629375,3.91176 3.666412,11.17052 0.549621,15.72231 -3.859325,6.03664 -12.034308,8.53553 -18.70102,6.09307 -12.486627,-2.53928 -24.001233,-9.54355 -37.009404,-9.4273 -0.764127,3.31912 2.479057,5.69929 4.557762,7.7248 7.258515,5.39357 16.626333,6.15331 24.625392,10.01369 8.664636,3.54601 17.680328,8.61168 21.890804,17.39118 4.450434,10.78459 1.455489,22.56018 1.741987,33.80005 0.380143,4.34966 -0.385853,8.63664 -0.747683,12.95255 0.179638,5.54561 -3.770336,10.12106 -4.057391,15.55677 -0.107559,5.05899 6.493648,8.6728 10.568731,5.50175 3.379352,-1.05702 6.029291,2.06493 9.00679,2.83904 5.106891,-0.0314 8.181014,-6.67706 5.457588,-10.8145 -4.461087,-15.31717 -5.612227,-31.33237 -6.754831,-47.16762 -0.45242,-12.41396 1.558619,-24.74828 4.264893,-36.81971 1.553333,-8.57876 3.115787,-17.65196 0.665918,-26.19036 -5.447499,-5.16553 -11.762754,-9.48245 -16.608208,-15.22617 z"
       id="rect4626-5-1"
       inkscape:connector-curvature="0"
       sodipodi:nodetypes="ccccccccccccccccccccccccccccccccccccc" />
    <path
       style="fill:#6b9300;fill-opacity:1;stroke-width:0.09239505"
       d="M 81.628168,47.655715 C 60.665934,47.910537 39.857032,52.595321 20.506406,60.568231 7.0146804,66.32812 -5.8929503,74.678453 -14.361518,86.901563 c -6.902321,9.824427 -11.29965,21.921877 -10.090543,34.042907 1.182627,11.27797 7.512261,22.20576 17.5061912,27.85126 8.3580155,4.90232 19.1510458,6.2597 28.0751158,2.06348 10.314288,-4.71138 17.649234,-14.20963 28.320481,-18.28348 12.848253,-5.17792 26.954443,-4.26182 40.514876,-4.36789 11.199337,-0.10413 22.726187,-0.76415 33.158567,-5.21435 3.95302,-1.82412 7.10168,-5.32764 8.31459,-9.52943 2.97807,-8.42547 1.85356,-17.668148 -0.55952,-26.083169 C 127.79447,76.899377 121.50479,67.437549 113.15216,60.410483 106.24305,54.372641 97.986507,49.369539 88.752211,48.127787 86.395147,47.780174 84.01017,47.630687 81.628168,47.655715 Z"
       id="path4629-3-3"
       inkscape:connector-curvature="0"
       sodipodi:nodetypes="sssssssssssssssss" />
    <path
       style="fill:#497200;fill-opacity:1;stroke-width:0.09239505"
       d="m 220.0266,230.30202 c -10.99664,0.10234 -21.71544,3.39871 -32.73378,3.15466 -12.92428,-0.1154 -25.65124,-3.14598 -38.59345,-2.89497 -15.95448,0.26907 -31.88395,2.25744 -47.85156,1.33918 -12.627471,-0.5622 -25.249533,-1.59221 -37.899275,-1.33482 -10.936186,0.0342 -21.874405,-0.10485 -32.809131,0.0948 -8.402473,0.39123 -16.706885,1.82288 -25.0744234,2.58977 -3.2776295,0.27865 -6.5686093,0.18405 -9.8490674,0.0245 -8.4199932,-0.22645 -16.8440822,-0.19994 -25.2659192,-0.30836 -2.547356,-0.0172 -5.09476,-0.0268 -7.642171,-0.0285 0,3.95976 0,7.91952 0,11.87927 98.9948,0 197.989597,0 296.984397,0 0,-3.95975 0,-7.91951 0,-11.87927 -13.14001,-0.0359 -26.12026,-2.75416 -39.26562,-2.63612 z"
       id="rect117"
       inkscape:connector-curvature="0"
       sodipodi:nodetypes="cccccccccccc" />
  </g>
</svg>
