<?xml version="1.0" encoding="UTF-8" standalone="no"?>
<!-- Created with Inkscape (http://www.inkscape.org/) -->

<svg
   xmlns:dc="http://purl.org/dc/elements/1.1/"
   xmlns:cc="http://creativecommons.org/ns#"
   xmlns:rdf="http://www.w3.org/1999/02/22-rdf-syntax-ns#"
   xmlns:svg="http://www.w3.org/2000/svg"
   xmlns="http://www.w3.org/2000/svg"
   xmlns:sodipodi="http://sodipodi.sourceforge.net/DTD/sodipodi-0.dtd"
   xmlns:inkscape="http://www.inkscape.org/namespaces/inkscape"
   width="210mm"
   height="297mm"
   viewBox="0 0 210 297"
   version="1.1"
   id="svg4602"
   inkscape:version="0.92.1 r15371"
   sodipodi:docname="back1.svg">
  <defs
     id="defs4596" />
  <sodipodi:namedview
     id="base"
     pagecolor="#ffffff"
     bordercolor="#666666"
     borderopacity="1.0"
     inkscape:pageopacity="0.0"
     inkscape:pageshadow="2"
     inkscape:zoom="0.175"
     inkscape:cx="310.21661"
     inkscape:cy="60.337457"
     inkscape:document-units="mm"
     inkscape:current-layer="layer1"
     showgrid="false"
     inkscape:window-width="1366"
     inkscape:window-height="705"
     inkscape:window-x="-8"
     inkscape:window-y="-8"
     inkscape:window-maximized="1"
     inkscape:snap-global="false"
     showguides="true"
     inkscape:guide-bbox="true">
    <sodipodi:guide
       position="23.519718,630.75609"
       orientation="0,1"
       id="guide5254"
       inkscape:locked="false" />
  </sodipodi:namedview>
  <metadata
     id="metadata4599">
    <rdf:RDF>
      <cc:Work
         rdf:about="">
        <dc:format>image/svg+xml</dc:format>
        <dc:type
           rdf:resource="http://purl.org/dc/dcmitype/StillImage" />
        <dc:title />
      </cc:Work>
    </rdf:RDF>
  </metadata>
  <g
     inkscape:label="Layer 1"
     inkscape:groupmode="layer"
     id="layer1">
    <path
       style="fill:#502d16;fill-opacity:1;stroke-width:0.09239505"
       d="m 199.03537,90.683594 c -5.36544,1.291296 -9.99577,5.08679 -12.54687,9.951176 -1.85195,2.9579 -4.03891,5.76506 -5.22851,9.08203 -0.60097,3.01375 0.0653,6.07111 0.55609,9.04898 1.60556,9.83617 1.94695,19.86505 4.2005,29.5965 1.64338,8.12489 2.78693,16.34112 3.75022,24.57134 2.40154,17.09522 6.82917,33.8555 8.70445,51.03166 0.3924,4.79249 -0.8601,9.49498 -1.30487,14.23666 -0.15873,1.64698 -0.12963,3.48009 0.92595,4.85056 1.32764,1.78396 3.6965,2.60004 5.86413,2.27886 1.73114,-0.13883 3.28863,-0.97077 4.89113,-1.55834 2.71032,-0.69153 5.52066,0.29781 8.24035,-0.28861 1.79406,-0.40677 3.39741,-1.63794 4.16697,-3.32097 1.11167,-2.19039 1.03267,-4.8284 0.18559,-7.09272 -0.89401,-2.81379 -2.1421,-5.52296 -2.70313,-8.43579 -1.94825,-7.97158 -2.59497,-16.17607 -3.3907,-24.32116 -0.62809,-7.36466 -1.3057,-14.74466 -1.19225,-22.14383 0.10108,-3.04932 0.65473,-6.15836 2.1768,-8.83945 1.5953,-3.0278 3.67016,-5.77067 5.81976,-8.42177 2.90351,-3.46814 6.29182,-6.5105 9.95743,-9.15308 3.26616,-2.3594 6.89456,-4.21983 10.71116,-5.50904 1.44554,-0.48963 2.9501,-0.75938 4.42638,-1.13156 2.67404,-0.7338 5.27395,-1.70908 7.8712,-2.67319 3.96469,-1.56158 7.82563,-3.3682 11.70924,-5.11763 1.1519,-0.91901 1.05058,-2.80922 0.0647,-3.81172 -0.96209,-0.9966 -2.3673,-1.31665 -3.64866,-1.69471 -2.84152,-0.69925 -5.82711,-0.36825 -8.61618,0.40753 -4.02158,1.00454 -7.87987,2.56033 -11.89792,3.57724 -1.98869,0.51374 -3.95625,1.10583 -5.89044,1.79747 -3.03871,1.04028 -6.08812,2.09734 -8.9598,3.54842 -2.02868,1.08228 -4.01576,2.25516 -6.15154,3.12107 -1.27021,0.53791 -2.49341,1.21345 -3.51287,2.15354 -1.85831,1.62079 -3.41431,3.54582 -5.1497,5.29107 -1.66335,1.73064 -3.26951,3.5572 -5.24932,4.93821 -1.19196,0.80528 -2.70626,1.44103 -4.15039,0.98438 -0.98898,-0.28978 -1.72576,-1.10396 -2.12,-2.03176 -0.64915,-1.43776 -0.75089,-3.037 -1.14583,-4.54935 -0.97671,-4.45809 -1.74965,-8.95718 -2.50326,-13.45718 -0.68467,-3.64817 -1.41377,-7.30283 -1.62292,-11.01677 -0.49235,-5.93186 -1.19893,-11.84293 -1.82754,-17.76121 -0.24402,-2.30248 -0.54613,-4.59916 -0.77381,-6.90298 -0.13473,-1.76348 0.30625,-3.658281 1.58539,-4.941258 0.80794,-0.868896 1.91864,-1.331608 2.99208,-1.776338 0.97419,-0.432781 2.03215,-0.974812 2.51411,-1.980022 0.42395,-1.119024 -0.47379,-2.606931 -1.72712,-2.536258 z"
       id="rect4626-5-1-99"
       inkscape:connector-curvature="0"
       sodipodi:nodetypes="ccccccccccccccccccccccccccccccccccccc" />
    <path
       style="fill:#502d16;fill-opacity:1;stroke-width:0.09239505"
       d="m -335.42361,75.107422 c -5.33011,3.003293 -7.83527,9.389189 -7.72733,15.290056 -0.85437,14.456432 2.73892,28.674732 6.65067,42.467042 7.07486,27.69314 7.31525,56.64421 4.70697,84.95769 -0.70083,7.08284 -0.94832,14.5675 -4.64781,20.87383 -2.68897,4.84742 -6.60983,8.95658 -11.19321,12.048 -1.55341,1.3554 -2.42473,3.97926 -0.84008,5.64854 2.1327,2.85515 6.0451,3.34443 9.35197,2.97654 7.46067,0.007 14.68374,2.36158 21.42891,5.37481 2.67899,0.90074 6.33007,0.45635 7.72712,-2.31431 2.16643,-3.69924 1.16096,-8.1822 0.0152,-12.03826 -1.90456,-6.71213 -3.41507,-13.52875 -5.45427,-20.20354 -1.26695,-4.5466 -2.69097,-9.14555 -2.54806,-13.92066 0.0263,-5.7268 0.89483,-11.41347 0.89286,-17.1424 0.607,-15.10887 1.04969,-30.33943 -1.13442,-45.34913 -2.7339,-15.15063 -9.45673,-29.30929 -11.50823,-44.61369 -1.18933,-8.04687 -0.8537,-16.197888 -0.96405,-24.301254 -0.13086,-2.471703 -0.1156,-5.094395 -1.1885,-7.369936 -0.71452,-1.281508 -1.99054,-2.510399 -3.5677,-2.383328 z"
       id="rect4626-5-7"
       inkscape:connector-curvature="0"
       sodipodi:nodetypes="ccccccccccccccccccccccccccccccccccccc" />
    <path
       style="fill:#502d16;fill-opacity:1;stroke-width:0.09239505"
       d="m -86.591582,116.33984 c -2.136044,-0.0566 -3.967283,2.01134 -3.797865,4.11017 0.382277,4.22514 -0.274328,8.47307 0.169155,12.69675 0.265257,2.85173 0.942902,5.66853 0.884117,8.54691 -0.005,3.3999 -0.415708,6.78213 -0.803031,10.15482 -1.007103,7.85524 -2.887236,15.59645 -3.343049,23.52062 -0.400591,5.28043 -0.277023,10.65898 1.04101,15.81299 1.500838,6.47334 3.256761,12.88476 4.727399,19.36537 2.104958,8.70764 4.017148,17.4687 6.473074,26.08607 2.040834,4.5397 7.612073,7.13914 12.39559,5.73142 1.187177,-0.34949 2.320224,-1.31043 2.405973,-2.61594 0.155752,-1.45888 -0.501649,-2.8267 -0.86788,-4.20461 -1.499058,-4.75898 -2.933388,-9.53811 -4.448993,-14.29196 -3.616248,-11.52684 -7.284324,-23.05083 -10.169714,-34.78749 -1.379935,-6.97592 -0.80123,-14.20185 0.745185,-21.09886 1.019191,-4.40826 2.424884,-8.74177 2.962081,-13.2496 0.509837,-3.44039 1.23978,-6.85747 1.454716,-10.33476 0.151135,-3.29539 -0.307347,-6.57654 -0.833237,-9.82057 -0.377419,-3.48594 -0.230956,-7.10604 -1.531854,-10.42361 -0.878339,-2.49286 -3.018332,-4.64218 -5.686257,-5.07621 -0.58645,-0.0994 -1.18197,-0.13798 -1.77642,-0.12151 z"
       id="rect4626-5-2"
       inkscape:connector-curvature="0"
       sodipodi:nodetypes="ccccccccccccccccccccccccccccccccccccc" />
    <path
       style="fill:#502d16;fill-opacity:1;stroke-width:0.09239505"
       d="m 583.35569,145.68555 c -2.17182,0.23746 -4.32146,1.31241 -5.56836,3.14648 -0.15749,0.62064 0.57053,1.23294 1.15625,0.98047 0.97334,0.48098 0.8841,1.87944 0.26914,2.61684 -1.33531,2.86862 -1.19992,6.12908 -0.84142,9.19566 0.004,2.19022 -0.57794,4.52667 0.41407,6.59375 0.74218,1.17977 2.02698,2.21011 1.99846,3.71946 -0.74184,3.84993 -0.056,7.76257 0.54964,11.5787 0.35996,3.6296 0.69696,7.28134 0.53016,10.93189 -0.26692,4.86127 -1.43367,9.64669 -3.23217,14.1625 -4.54078,13.44454 -9.30987,26.8509 -12.54528,40.68649 -0.25181,1.14836 -0.11699,2.56568 0.95309,3.26666 1.18815,0.91553 2.80033,0.90441 4.19803,0.58693 4.20749,-0.37708 8.37958,-2.80681 10.21131,-6.70607 1.71976,-3.95793 1.61862,-8.35757 2.42863,-12.53052 1.89072,-12.22148 6.81472,-23.73339 8.74799,-35.94497 0.36542,-2.31826 0.43278,-4.69583 -0.008,-7.00893 -0.39061,-2.66179 -0.74262,-5.39515 -0.19683,-8.06147 0.31215,-3.87606 -0.69219,-7.80943 0.24419,-11.64148 0.35341,-2.27025 0.38295,-4.84849 -1.09214,-6.75572 -1.66766,-2.28345 -4.17113,-4.05264 -5.03199,-6.85347 -0.87463,-3.36701 0.48747,-6.96425 -0.808,-10.26203 -0.40593,-0.92769 -1.29292,-1.79595 -2.37695,-1.70117 z"
       id="rect4626-5-6"
       inkscape:connector-curvature="0"
       sodipodi:nodetypes="ccccccccccccccccccccccccccccccccccccc" />
    <path
       style="fill:#502d16;fill-opacity:1;stroke-width:0.09239505"
       d="m 440.53721,140.18439 c 4.71223,0.13988 7.4778,6.53554 4.58242,10.16937 -2.93696,6.49371 -9.72185,10.14924 -12.85091,16.50629 -1.8122,4.29046 -0.53262,9.05389 0.96934,13.23036 4.03273,11.01788 8.28433,21.97485 11.48732,33.27391 0.84832,3.17734 1.76495,6.3327 2.94336,9.40611 1.21746,3.55432 2.51238,7.21749 2.65992,10.98232 -1.19747,2.28709 -4.19926,2.17671 -6.36824,1.67994 -4.32544,-0.57703 -8.86988,-3.19473 -10.04354,-7.65537 -1.88317,-6.41342 -1.38107,-13.28276 -3.54192,-19.63658 -2.41789,-8.96282 -5.14847,-17.84061 -7.37803,-26.85396 -1.38266,-5.05539 -3.45956,-9.88661 -5.8704,-14.52972 -0.83112,-1.67207 -1.87023,-3.82029 -0.60009,-5.55273 1.41939,-2.26758 4.16651,-3.07986 6.65855,-3.45402 3.62563,-0.95316 7.7386,-2.2321 9.65801,-5.75213 1.81959,-3.42171 1.53573,-7.91507 4.61125,-10.6443 0.82064,-0.77346 1.9543,-1.21079 3.08296,-1.16949 z"
       id="rect4626-5-12"
       inkscape:connector-curvature="0"
       sodipodi:nodetypes="ccccccccccccccccccccccccccccccccccccc" />
    <path
       style="fill:#502d16;fill-opacity:1;stroke-width:0.09239505"
       d="m 144.70529,145.71094 c -3.497,0.6866 -5.91013,4.64256 -4.9324,8.06747 0.78104,3.52068 3.65183,6.44823 7.12556,7.37883 2.10223,0.65565 4.35596,0.76519 6.39788,1.61796 0.74468,0.45273 0.87888,1.48861 0.51247,2.22871 -0.43451,1.0708 -1.04252,2.07091 -1.33698,3.19666 -0.91766,2.75631 -1.66489,5.58531 -2.95507,8.20094 -0.99435,2.26019 -1.63547,4.65299 -2.19106,7.05239 -0.85754,3.15751 -2.15528,6.22406 -2.44656,9.51166 -0.42346,3.50457 -0.53319,7.1295 -1.92819,10.42628 -1.36104,3.46851 -2.66381,7.00913 -3.11954,10.72869 -0.59244,3.63046 -1.25502,7.28111 -2.59848,10.72134 -0.86164,2.45135 -1.45662,5.04274 -1.30693,7.65599 0.0135,1.94221 -0.0323,3.88617 -0.13013,5.82461 0.16379,1.46519 1.6147,2.58384 3.06464,2.49589 2.0349,0.14205 4.05696,-0.26648 6.03585,-0.69091 2.24177,-0.58477 4.49121,-1.73965 5.7448,-3.7638 1.23897,-2.03917 1.34665,-4.48801 1.56419,-6.79964 0.38173,-3.91222 1.1443,-7.78771 1.25396,-11.72512 0.15377,-3.59795 0.35642,-7.20724 1.03631,-10.75088 0.98594,-5.23545 2.21558,-10.42264 3.15746,-15.66675 0.45834,-2.51984 0.79787,-5.05937 1.06403,-7.60609 0.2374,-1.90606 0.69499,-3.77771 1.2809,-5.60473 0.66468,-2.31852 1.17559,-4.67981 1.88943,-6.9839 0.64839,-2.1857 1.82551,-4.18585 2.31188,-6.42321 0.20979,-1.04588 0.35177,-2.14595 0.12512,-3.19981 -0.30609,-1.07777 -1.42674,-1.63799 -2.45899,-1.80274 -2.41054,-0.6435 -4.98968,-0.91387 -7.15885,-2.23695 -1.93491,-1.24524 -3.08562,-3.3652 -3.78277,-5.50047 -0.65986,-1.88488 -1.37256,-3.89909 -2.96848,-5.2063 -0.90491,-0.74031 -2.06578,-1.22833 -3.25005,-1.14612 z"
       id="rect4626-5-11"
       inkscape:connector-curvature="0"
       sodipodi:nodetypes="ccccccccccccccccccccccccccccccccccccc" />
    <path
       style="fill:#502d16;fill-opacity:1;stroke-width:0.09239505"
       d="m 294.07351,149.80609 c 4.71223,0.13988 7.47779,6.53554 4.58242,10.16937 -2.93696,6.49371 -9.72186,10.14924 -12.85091,16.50629 -1.8122,4.29046 -0.53263,9.0539 0.96934,13.23036 4.03273,11.01788 8.28433,21.97485 11.48732,33.27391 0.84832,3.17734 1.76495,6.33271 2.94335,9.40611 1.21747,3.55432 2.51238,7.2175 2.65993,10.98232 -1.19747,2.28709 -4.19926,2.17671 -6.36824,1.67994 -4.32544,-0.57703 -8.86988,-3.19473 -10.04354,-7.65537 -1.88317,-6.41342 -1.38107,-13.28276 -3.54192,-19.63657 -2.41789,-8.96283 -5.14847,-17.84062 -7.37803,-26.85397 -1.38266,-5.05538 -3.45956,-9.88661 -5.87041,-14.52971 -0.83112,-1.67208 -1.87023,-3.8203 -0.60008,-5.55274 1.41938,-2.26758 4.16651,-3.07986 6.65855,-3.45402 3.62563,-0.95316 7.7386,-2.2321 9.65801,-5.75213 1.81959,-3.42171 1.53573,-7.91507 4.61125,-10.6443 0.82064,-0.77346 1.9543,-1.21079 3.08296,-1.16949 z"
       id="rect4626-5-3"
       inkscape:connector-curvature="0"
       sodipodi:nodetypes="ccccccccccccccccccccccccccccccccccccc" />
    <path
       style="fill:#502d16;fill-opacity:1;stroke-width:0.09239505"
       d="m 504.38302,154.07422 c -2.22976,0.11473 -3.95344,2.16037 -4.27198,4.27626 -0.13719,1.12819 0.0232,2.26835 0.005,3.40251 0.0395,2.76837 0.25925,5.55156 -0.0532,8.311 -0.20353,1.92552 -0.79054,3.77568 -1.3854,5.60789 -1.08348,3.7134 -1.7582,7.58175 -1.58011,11.4601 -0.37459,7.20043 -1.58528,14.43476 -0.60127,21.63893 0.34785,4.90568 1.47221,9.71183 1.93926,14.60297 0.29377,3.73825 0.4324,7.50196 1.16448,11.19004 0.86234,4.05116 1.18066,8.29275 2.98272,12.08004 1.25896,2.58133 4.01831,4.16547 6.79257,4.57805 2.83951,0.48876 5.86355,0.53148 8.57447,-0.55368 1.15366,-0.75022 1.28356,-2.47532 0.47465,-3.52662 -0.83807,-1.4813 -1.90991,-2.84521 -2.45308,-4.47792 -1.55915,-3.78545 -2.33163,-7.82478 -3.43132,-11.75385 -0.44994,-1.93466 -1.01211,-3.86068 -1.9922,-5.60105 -0.93221,-1.79142 -1.78565,-3.71426 -1.73973,-5.77697 0.002,-1.66282 -0.14363,-3.31874 -0.4202,-4.95814 -0.46613,-2.99236 -0.98699,-5.99063 -0.99648,-9.02873 -0.17234,-5.09397 -0.30253,-10.20035 10e-4,-15.29158 0.17142,-2.56406 0.64576,-5.09489 1.24648,-7.58958 1.13321,-5.41814 2.37665,-10.93324 1.86452,-16.50454 -0.14376,-2.91814 -0.0833,-5.92505 0.93769,-8.69841 0.0383,-1.04586 -1.08012,-1.56032 -1.92747,-1.82246 -1.63848,-0.70746 -3.2944,-1.60674 -5.13113,-1.56426 z"
       id="rect4626-90"
       inkscape:connector-curvature="0"
       sodipodi:nodetypes="ccccccccccccccccccccccccccccccccccccc" />
    <path
       style="fill:#502d16;fill-opacity:1;stroke-width:0.09239505"
       d="m -400.30251,96.171875 c -2.40509,1.41577 -3.58075,4.464145 -3.02225,7.158355 0.36729,3.02362 1.93814,5.7315 3.69691,8.15593 3.63884,5.90243 7.40892,11.72279 11.06293,17.61564 3.90631,6.39229 7.52151,13.06133 9.60949,20.29276 0.994,3.43096 1.71492,6.96672 1.83472,10.54398 -0.12592,2.91813 -0.76551,5.77835 -1.20128,8.65806 -0.48626,2.05777 -1.55936,3.91575 -2.11374,5.95322 -0.26683,0.95272 -0.622,2.06744 -1.60897,2.4951 -0.83271,0.27696 -1.6611,-0.22483 -2.36047,-0.62847 -2.5874,-1.61025 -5.13466,-3.28411 -7.66534,-4.9817 -1.56924,-1.01837 -3.2127,-1.91909 -4.74136,-3.00078 -5.6078,-3.8448 -10.57628,-8.54844 -16.2903,-12.24607 -1.59104,-1.00521 -3.16813,-2.03264 -4.69763,-3.13023 -3.56328,-2.49388 -7.11452,-5.12945 -11.21114,-6.69001 -3.14655,-1.16455 -6.65769,-1.56603 -9.92967,-0.70932 -1.56216,0.68431 -2.15384,2.73923 -1.48621,4.24657 0.49322,1.4592 1.77761,2.49423 3.14391,3.10527 9.7842,5.90227 18.69274,13.0938 27.71963,20.06363 4.44752,3.43938 8.8512,6.93656 13.34534,10.31496 3.26486,2.37584 6.79256,4.465 9.59018,7.41652 1.33036,1.42581 2.3562,3.13806 2.91679,5.00983 1.3091,3.93403 1.5013,8.11219 1.80186,12.21443 0.23278,3.53181 0.51912,7.07795 1.32675,10.53254 1.12907,6.53642 1.70524,13.2196 3.85734,19.53294 1.06651,3.09344 2.42348,6.14457 4.47871,8.71474 1.41662,1.32078 3.40458,1.81355 5.2934,1.89726 1.97858,0.0228 4.09438,-0.56612 5.45184,-2.07825 1.00697,-1.18524 1.28697,-2.95468 0.60988,-4.36831 -3.46804,-10.57159 -7.41467,-21.02114 -9.83501,-31.90278 -0.96891,-4.42721 -1.78608,-8.91006 -1.99263,-13.44528 -0.12145,-2.97674 0.14646,-5.96328 0.75455,-8.87864 0.96969,-5.21822 2.60954,-10.27466 4.02318,-15.38137 1.25508,-4.64445 2.15553,-9.41955 2.17342,-14.24486 0.0822,-3.43373 -0.18873,-6.90069 -1.137,-10.21371 -1.66987,-6.19543 -4.74608,-11.87635 -7.80019,-17.47703 -3.05137,-5.55599 -6.39472,-10.94689 -9.91736,-16.21533 -4.02886,-6.05511 -8.31081,-11.95133 -13.01817,-17.499517 -0.67208,-0.577357 -1.53686,-0.959376 -2.43165,-0.957031 -0.0768,0.04232 -0.15364,0.08464 -0.23046,0.126953 z"
       id="rect4626-9"
       inkscape:connector-curvature="0"
       sodipodi:nodetypes="ccccccccccccccccccccccccccccccccccccc" />
    <path
       style="fill:#502d16;fill-opacity:1;stroke-width:0.09239505"
       d="m -278.81815,96.121094 c -6.8306,3.807041 -10.30539,12.072946 -9.56314,19.680646 0.49492,8.98677 3.49483,17.92921 1.82871,26.95947 -1.3196,7.7787 -4.42297,15.47919 -3.31531,23.48845 2.00782,12.6169 6.74185,24.8783 6.42475,37.80307 -0.14271,8.34184 -0.56374,16.69341 -1.53125,24.98047 -1.43683,7.45659 -6.9616,13.40301 -8.1289,20.94336 -0.48148,2.86538 -0.67315,5.91382 0.17382,8.71485 1.49957,2.27509 4.67962,2.24911 7.03907,1.63671 3.73703,-1.08893 6.81126,-3.65214 10.47397,-4.93073 3.6153,-1.59769 7.78492,-3.2586 9.56009,-7.08068 1.99311,-4.23903 0.65967,-9.01614 -0.47067,-13.29353 -1.8094,-6.40122 -3.40307,-13.01988 -2.83784,-19.72299 0.83158,-7.77094 1.32502,-15.63968 0.28226,-23.41738 -0.73331,-6.27649 -2.41903,-12.37705 -3.90636,-18.50098 -2.16018,-9.64878 -3.04662,-19.66266 -1.72407,-29.49563 0.65178,-8.8485 0.13879,-17.75214 -1.14322,-26.52058 -0.49679,-6.29308 0.0566,-12.63073 -0.44921,-18.914547 -0.41522,-1.142767 -1.33024,-2.476743 -2.7127,-2.329979 z"
       id="rect4626-8"
       inkscape:connector-curvature="0"
       sodipodi:nodetypes="ccccccccccccccccccccccccccccccccccccc" />
    <path
       style="fill:#502d16;fill-opacity:1;stroke-width:0.09239505"
       d="m -209.05642,142.42773 c -2.2296,0.35657 -4.36645,1.12692 -6.44337,1.99219 -0.72937,2.10389 -0.0599,4.31709 0.22568,6.43667 0.40751,3.9865 0.91193,7.96354 1.24572,11.95776 0.20015,2.53146 0.61389,5.04353 1.25252,7.50151 0.56601,2.34069 1.22518,4.67661 1.37375,7.09234 0.44699,5.3355 -0.0361,10.68569 -0.31497,16.01649 -0.32753,5.23921 -0.40689,10.48853 -0.52998,15.73521 -0.12393,4.78304 -0.28171,9.58257 -0.99587,14.32015 -0.79795,4.88051 -2.438,9.5779 -4.37036,14.11472 -0.3848,1.07114 -0.81575,2.31512 -0.28409,3.41135 0.75478,1.12668 2.31231,1.37678 3.54125,1.00603 3.11369,-0.43953 6.39802,-0.57764 9.20928,-2.13821 2.76917,-1.6591 4.34151,-4.83019 4.61941,-7.9785 1.06313,-7.36827 0.44335,-14.82635 0.16014,-22.22648 -0.26678,-5.39101 -0.38224,-10.7892 -0.35527,-16.18644 -0.18084,-5.65387 -0.029,-11.31651 -0.31802,-16.96654 -0.5294,-4.57203 -1.6546,-9.04844 -2.27071,-13.60745 -0.69926,-3.76 -1.1691,-7.55759 -1.62226,-11.35297 -0.33997,-1.99999 -1.12064,-3.90856 -1.35812,-5.92587 0.0193,-1.02976 -0.023,-2.29216 -0.96924,-2.92954 -0.52792,-0.33752 -1.19174,-0.40665 -1.79549,-0.27242 z"
       id="rect4626-1"
       inkscape:connector-curvature="0"
       sodipodi:nodetypes="ccccccccccccccccccccccccccccccccccccc" />
    <path
       style="fill:#502d16;fill-opacity:1;stroke-width:0.09239505"
       d="m 367.84201,98.919922 c -5.78798,3.600918 -5.77422,13.318258 0.0314,16.899628 4.39412,3.7583 5.86618,10.05001 4.7435,15.57894 -0.90251,6.14965 -2.83062,12.10588 -3.55674,18.2865 -0.66063,3.55639 -1.41742,7.10997 -2.62639,10.52595 -1.44518,0.48546 -2.14542,-1.2731 -2.70741,-2.26547 -2.82576,-5.39255 -6.50072,-10.3301 -10.65501,-14.76836 -3.32912,-3.39874 -7.47314,-5.95748 -11.99392,-7.43406 -7.05733,-2.69224 -14.35435,-4.76026 -21.74131,-6.31532 -1.63709,-0.21405 -3.52024,-0.48652 -4.99953,0.34159 -0.93837,1.66187 0.6513,3.30155 1.78202,4.37099 4.35025,4.67733 10.6773,6.46808 16.17554,9.34897 6.2192,3.87341 10.5635,9.91674 15.53324,15.15629 4.66578,5.91751 7.71062,12.92265 12.40267,18.82378 3.12432,4.41767 5.36239,9.58762 5.62554,15.04491 0.89857,8.77828 0.57373,17.62025 0.4309,26.42515 -0.22636,3.82048 -0.89044,7.91335 -3.54023,10.86137 -1.02547,1.40337 -1.13806,3.7299 0.55274,4.68555 2.93717,2.2513 7.04945,1.56614 10.11523,-0.0488 2.57322,-1.01281 5.39304,-0.59812 8.0293,-0.14062 3.5285,0.0479 6.61369,-3.27957 6.27987,-6.80002 -0.002,-4.24764 -2.2147,-8.04455 -3.05136,-12.13358 -2.67424,-9.29102 -4.24238,-18.96224 -3.86654,-28.6496 -0.0636,-5.74018 -0.91723,-11.43048 -1.54944,-17.12066 -0.17676,-9.99246 3.36912,-19.50107 4.88943,-29.27311 1.52528,-8.13391 2.72859,-16.6029 0.91829,-24.79243 -1.6372,-4.45545 -6.07082,-6.77765 -9.26013,-9.97791 -2.52431,-2.31021 -5.01295,-4.66738 -7.70387,-6.785898 -0.0859,0.05208 -0.17188,0.104167 -0.25781,0.15625 z"
       id="rect4626-5-1-9"
       inkscape:connector-curvature="0"
       sodipodi:nodetypes="ccccccccccccccccccccccccccccccccccccc" />
    <path
       style="fill:#502d16;fill-opacity:1;stroke-width:0.09239505"
       d="m -116.25564,74.703125 c -3.09946,0.237794 -5.71203,2.127842 -8.13086,3.914063 -6.34599,4.547339 -10.31949,12.030428 -11.01804,19.759169 -0.78076,6.070613 -1.00611,12.193733 -1.31594,18.301203 -0.27443,8.25441 -0.19723,16.64175 -2.36614,24.67815 -0.7352,2.77382 -1.55868,5.65869 -3.42585,7.90412 -1.7268,1.6237 -4.37733,1.87725 -6.55351,1.12355 -4.11098,-0.9526 -8.13159,-2.25075 -12.15291,-3.5192 -10.05784,-3.41498 -19.54904,-8.35295 -28.42071,-14.16582 -0.97401,-0.56005 -2.38106,-0.9897 -3.31526,-0.13195 -0.94328,0.99597 -0.67485,2.62832 0.15889,3.60394 3.38492,5.98563 8.24179,11.15566 14.11843,14.74793 3.91857,2.45048 8.24225,4.17647 12.65596,5.5048 6.11053,2.08194 12.30905,4.41052 17.37402,8.52946 7.01734,5.70201 10.96232,14.79408 10.79046,23.78813 0.0255,7.09539 -1.19946,14.14073 -2.96666,20.99322 -2.00953,7.36991 -5.05946,14.39743 -8.21366,21.33577 -0.82372,2.13754 -1.31878,4.67935 -0.18962,6.80348 1.34503,2.58133 4.17454,4.02185 6.95896,4.45853 7.39083,1.85558 15.03769,2.22631 22.53064,3.49872 1.96435,0.24018 4.1574,-0.35774 5.36468,-2.01592 1.65466,-1.98477 1.9246,-4.8991 0.91555,-7.24162 -1.23556,-4.10113 -2.64191,-8.15257 -3.67848,-12.31162 -2.11504,-7.78732 -3.32068,-15.85433 -3.15142,-23.93518 -0.13417,-11.43665 0.2368,-22.87071 0.48984,-34.30305 0.41405,-11.89795 1.43116,-23.77326 1.53846,-35.68157 -0.12358,-6.21045 -0.38069,-12.43327 -1.20393,-18.59455 -0.62673,-3.23248 -1.40404,-6.50526 -1.09389,-9.82135 0.0887,-3.648924 1.06935,-7.362155 3.30903,-10.295885 1.53226,-2.160348 3.75485,-3.8201 4.83624,-6.295028 1.24688,-2.555339 1.45723,-5.734832 0.0771,-8.28009 -0.76425,-1.42927 -2.27034,-2.432645 -3.92138,-2.351402 z"
       id="rect4626-5-1-2"
       inkscape:connector-curvature="0"
       sodipodi:nodetypes="ccccccccccccccccccccccccccccccccccccc" />
    <path
       style="fill:#502d16;fill-opacity:1;stroke-width:0.09239505"
       d="m 92.515474,146.64069 c 4.712236,0.13988 7.477786,6.53554 4.582416,10.16937 -2.93697,6.49371 -9.721856,10.14924 -12.850906,16.50629 -1.8122,4.29046 -0.53263,9.05389 0.96934,13.23036 4.03273,11.01788 8.28433,21.97485 11.487316,33.27391 0.84833,3.17734 1.76495,6.3327 2.94335,9.40611 1.21746,3.55432 2.51238,7.21749 2.65993,10.98232 -1.19746,2.28709 -4.19925,2.17671 -6.36824,1.67994 -4.325436,-0.57703 -8.869876,-3.19473 -10.043536,-7.65537 -1.88317,-6.41342 -1.38107,-13.28276 -3.54192,-19.63658 -2.41789,-8.96282 -5.14847,-17.84061 -7.378031,-26.85396 -1.382657,-5.05539 -3.459557,-9.88661 -5.870406,-14.52972 -0.831116,-1.67207 -1.870228,-3.82029 -0.600082,-5.55273 1.419387,-2.26758 4.166508,-3.07986 6.658548,-3.45402 3.625631,-0.95316 7.738601,-2.2321 9.658011,-5.75213 1.81959,-3.42171 1.53573,-7.91507 4.61125,-10.6443 0.82064,-0.77346 1.9543,-1.21079 3.08296,-1.16949 z"
       id="rect4626-5"
       inkscape:connector-curvature="0"
       sodipodi:nodetypes="ccccccccccccccccccccccccccccccccccccc" />
    <path
       style="fill:#4b8800;fill-opacity:1;stroke-width:0.09239505"
       d="m 89.103864,102.77396 c 10.927856,0.0666 21.314876,4.59267 30.272266,10.57352 4.90587,2.92488 10.30446,5.84656 13.14736,11.04166 2.99411,6.1905 3.19026,13.24144 3.14781,19.9843 -0.57143,5.13373 -3.85929,9.49007 -7.67592,12.76181 -5.51138,5.5837 -12.13473,10.65792 -20.03853,12.06948 -8.43617,1.7483 -17.082546,2.03287 -25.663746,2.37991 -8.132037,0.0808 -16.352632,-0.5724 -24.201145,-2.79299 -5.867736,-1.99319 -10.388603,-6.59566 -13.774574,-11.63432 -4.481022,-5.7849 -6.225763,-13.39948 -5.312616,-20.60808 0.936654,-8.59624 4.974552,-16.55214 10.00618,-23.46 4.185716,-4.6686 10.469342,-6.45244 16.33293,-7.96415 7.768693,-1.86065 15.793365,-2.37497 23.759985,-2.35114 z"
       id="path4629-3"
       inkscape:connector-curvature="0"
       sodipodi:nodetypes="sssssssssssssssss" />
    <path
       style="fill:#502d16;fill-opacity:1;stroke-width:0.09239505"
       d="m -19.37345,145.37245 c -2.823569,0.45416 -5.299417,1.96889 -7.820389,3.22269 0.18873,5.50168 3.155266,10.35731 4.219633,15.6733 1.824585,7.20308 4.430897,14.23678 5.436101,21.62678 0.327147,6.5953 -0.510995,13.26038 -2.609022,19.52837 -1.630816,5.27734 -3.618856,10.4464 -5.011731,15.79541 -0.813572,3.52175 -1.39745,7.13146 -2.875896,10.45773 -0.764276,1.89137 -1.859342,3.62267 -2.982757,5.3128 -0.559116,1.08624 -0.370976,2.69223 0.854307,3.22838 1.606274,0.83918 3.452632,0.25563 5.169165,0.33258 3.077833,-0.098 6.414685,-0.53615 8.812652,-2.65109 2.105346,-1.9068 3.069239,-4.75578 3.265557,-7.52806 0.612933,-3.92075 1.339652,-7.8243 2.140491,-11.70954 0.8154538,-5.30658 0.8514258,-10.72301 2.0887868,-15.96458 1.25433,-6.29212 2.167321,-12.73126 1.585727,-19.15642 -0.475711,-6.08939 -2.13063,-11.99903 -3.9095488,-17.81596 -1.617882,-5.40427 -3.198984,-10.82031 -4.7322,-16.24858 -0.544383,-1.64866 -1.449241,-3.48625 -3.214827,-4.06698 -0.136314,-0.0307 -0.276417,-0.044 -0.416049,-0.0368 z"
       id="rect4626"
       inkscape:connector-curvature="0"
       sodipodi:nodetypes="ccccccccccccccccccccccccccccccccccccc" />
    <path
       style="fill:#4b8800;fill-opacity:1;stroke-width:0.09239505"
       d="m -10.664353,104.09273 c -13.23485,0.94511 -26.690297,3.24902 -38.55326,9.46849 -7.854263,5.00243 -14.5793,12.48484 -16.949931,21.65823 -1.047552,6.94492 1.587039,13.70721 4.139213,20.02862 1.943478,4.65798 5.886924,8.51051 10.759007,9.97592 6.119574,2.47599 12.357454,4.65884 18.617149,6.74678 7.199834,2.07193 14.800591,3.83251 22.303193,2.44213 6.8259948,-1.16366 13.6200638,-3.03024 19.696971,-6.42473 6.779445,-3.59358 13.449994,-7.98559 17.941568,-14.33925 2.768353,-3.97265 5.079978,-8.74643 4.537886,-13.71299 -0.787632,-5.55159 -4.068983,-10.25769 -6.298913,-15.28509 -2.264707,-4.4584 -5.599411,-8.66374 -10.323837,-10.64363 -4.738073,-2.35874 -9.58299,-4.50251 -14.2670442,-6.96783 -3.639508,-1.66802 -7.547863,-3.02295 -11.6020018,-2.94665 z"
       id="path4629"
       inkscape:connector-curvature="0"
       sodipodi:nodetypes="sssssssssssssssss" />
    <path
       style="fill:#502d16;fill-opacity:1;stroke-width:0.09239505"
       d="m 41.504066,106.21586 c -7.212793,3.20045 -6.521897,15.0846 0.549051,18.05045 4.629375,3.91176 3.666412,11.17052 0.549621,15.72231 -3.859325,6.03664 -12.034308,8.53553 -18.70102,6.09307 -12.486627,-2.53928 -24.0012332,-9.54355 -37.009404,-9.4273 -0.764127,3.31912 2.479057,5.69929 4.5577618,7.7248 7.258515,5.39357 16.6263332,6.15331 24.6253922,10.01369 8.664636,3.54601 17.680328,8.61168 21.890804,17.39118 4.450434,10.78459 1.455489,22.56018 1.741987,33.80005 0.380143,4.34966 -0.385853,8.63664 -0.747683,12.95255 0.179638,5.54561 -3.770336,10.12106 -4.057391,15.55677 -0.107559,5.05899 6.493648,8.6728 10.568731,5.50175 3.379352,-1.05702 6.029291,2.06493 9.00679,2.83904 5.106891,-0.0314 8.181014,-6.67706 5.457588,-10.8145 -4.461087,-15.31717 -5.612227,-31.33237 -6.754831,-47.16762 -0.45242,-12.41396 1.558619,-24.74828 4.264893,-36.81971 1.553333,-8.57876 3.115787,-17.65196 0.665918,-26.19036 -5.447499,-5.16553 -11.762754,-9.48245 -16.608208,-15.22617 z"
       id="rect4626-5-1"
       inkscape:connector-curvature="0"
       sodipodi:nodetypes="ccccccccccccccccccccccccccccccccccccc" />
    <path
       style="fill:#6b9300;fill-opacity:1;stroke-width:0.09239505"
       d="M 57.727992,47.655715 C 36.765758,47.910537 15.956856,52.595321 -3.3937702,60.568231 -16.885496,66.32812 -29.793126,74.678453 -38.261694,86.901563 c -6.902321,9.824427 -11.29965,21.921877 -10.090543,34.042907 1.182627,11.27797 7.512261,22.20576 17.506191,27.85126 8.358016,4.90232 19.151046,6.2597 28.0751158,2.06348 10.3142882,-4.71138 17.6492342,-14.20963 28.3204812,-18.28348 12.848253,-5.17792 26.954443,-4.26182 40.514876,-4.36789 11.199337,-0.10413 22.726187,-0.76415 33.158563,-5.21435 3.95302,-1.82412 7.10168,-5.32764 8.31459,-9.52943 2.97807,-8.42547 1.85356,-17.668148 -0.55951,-26.083169 C 103.8943,76.899377 97.60461,67.437549 89.251984,60.410483 82.342874,54.372641 74.086331,49.369539 64.852035,48.127787 c -2.357064,-0.347613 -4.742041,-0.4971 -7.124043,-0.472072 z"
       id="path4629-3-3"
       inkscape:connector-curvature="0"
       sodipodi:nodetypes="sssssssssssssssss" />
    <path
       style="fill:#497200;fill-opacity:1;stroke-width:0.09239505"
       d="m 196.12642,230.30202 c -10.99663,0.10234 -21.71544,3.39871 -32.73378,3.15466 -12.92428,-0.1154 -25.65124,-3.14598 -38.59344,-2.89497 -15.95448,0.26907 -31.883956,2.25744 -47.851566,1.33918 -12.627471,-0.5622 -25.249533,-1.59221 -37.899275,-1.33482 -10.936186,0.0342 -21.874405,-0.10485 -32.809131,0.0948 -8.4024732,0.39123 -16.706885,1.82288 -25.074423,2.58977 -3.27763,0.27865 -6.56861,0.18405 -9.849068,0.0245 -8.419993,-0.22645 -16.844082,-0.19994 -25.265919,-0.30836 -2.547356,-0.0172 -5.09476,-0.0268 -7.642171,-0.0285 -22.495186,-0.92549 -50.335757,5.09802 -75.503637,2.03437 -19.28795,-1.81639 -35.36867,-9.51271 -57.86387,-5.44917 -29.266,5.48898 -59.06656,9.37434 -87.79802,16.46693 -24.52197,4.70446 -51.18212,2.45992 -79.98041,-1.92278 -21.43723,-3.79497 -41.27087,-10.26263 -64.31173,-11.3849 l 0.90203,45.27624 1066.98791,-0.26727 -0.21715,-45.35976 c -17.22087,0.74332 -32.55186,4.88842 -49.01677,8.65555 -15.78135,3.5442 -33.45259,5.95448 -49.98989,7.6088 -10.73271,0.73656 -34.69459,2.98503 -46.93921,-5.72781 -11.6616,-7.24942 -23.3232,-11.09704 -38.38659,-12.67682 -20.47887,-0.95352 -40.20179,-4.17491 -60.30268,-6.26236 -21.23483,-2.10383 -40.2018,0.70605 -60.30269,3.89389 -15.40337,2.34542 -32.31866,6.20276 -49.61191,8.17021 -16.51568,1.62746 -33.40934,-2.7927 -50.68098,-3.05512 -13.14001,-0.0359 -26.12026,-2.75416 -39.26562,-2.63612 z"
       id="rect117"
       inkscape:connector-curvature="0"
       sodipodi:nodetypes="cccccccccccccccccccccccccccc" />
    <path
       style="fill:#4b8800;fill-opacity:1;stroke-width:0.09239505"
       d="m -143.13455,-6.703125 c -16.27631,1.0861196 -30.33597,10.2189875 -44.05253,18.180801 -8.79893,4.99715 -17.8365,11.893107 -20.40897,22.203748 -3.04383,14.888341 -2.52278,30.340284 -0.0287,45.258029 3.02663,8.969601 11.84134,14.079128 20.04972,17.627847 14.45083,6.77193 29.50549,12.77213 45.4511,14.75871 9.21863,1.2047 18.45518,2.27896 27.65402,3.61874 12.81676,1.45919 25.950579,0.81878 38.450152,-2.43734 5.105018,-1.76778 10.073425,-3.94788 15.027815,-6.08163 7.941884,-4.35158 12.65059,-12.678567 15.180981,-21.101061 4.528381,-14.484637 4.545647,-29.821055 7.040702,-44.687886 1.038653,-9.714156 0.03718,-20.725945 -7.159183,-28.046989 -9.770235,-10.6097622 -24.005585,-15.9806747 -38.015625,-17.9941409 -10.742933,-1.4253422 -21.558132,0.011661 -32.322392,0.053517 -8.96432,-0.2798292 -17.88996,-1.4213331 -26.86706,-1.3523449 z"
       id="path4629-0"
       inkscape:connector-curvature="0"
       sodipodi:nodetypes="sssssssssssssssss" />
    <path
       style="fill:#4b8800;fill-opacity:1;stroke-width:0.09239505"
       d="m -187.62673,114.38086 c -1.70954,0.0326 -3.41014,0.23376 -5.10767,0.42366 -1.13126,0.12909 -2.22837,0.44363 -3.28737,0.85391 -1.92495,0.64741 -3.92452,1.2674 -5.5198,2.57844 -1.75749,1.43776 -2.65938,3.63549 -3.14767,5.79829 -0.73916,3.11301 -0.88685,6.32706 -0.9668,9.51367 0.0241,2.02834 0.49652,4.04239 1.35971,5.87706 0.92324,2.1761 1.88974,4.41446 3.54654,6.14442 1.55413,1.51209 3.53819,2.44929 5.38333,3.54429 2.68536,1.4591 5.66756,2.21922 8.57457,3.09805 4.61916,1.29378 9.59769,1.70354 14.27055,0.43921 5.93486,-1.60888 11.00052,-6.02266 13.50651,-11.62606 1.79412,-3.94818 2.37801,-8.5561 1.08036,-12.74025 -1.19317,-3.83029 -3.96977,-7.09767 -7.48064,-9.01451 -2.50373,-1.41933 -5.32123,-2.15471 -8.13766,-2.64655 -3.76167,-0.71578 -7.50941,-1.51733 -11.29532,-2.09664 -0.92055,-0.11972 -1.85085,-0.15856 -2.77864,-0.14699 z"
       id="path4629-33"
       inkscape:connector-curvature="0"
       sodipodi:nodetypes="sssssssssssssssss" />
    <path
       style="fill:#4b8800;fill-opacity:1;stroke-width:0.09239505"
       d="m -301.18142,38.792969 c -14.45788,1.54769 -28.31336,9.995435 -35.375,22.851562 -3.28585,8.089845 -4.32031,16.999506 -3.59756,25.665871 1.48806,7.482333 5.63488,14.037788 8.10855,21.183228 2.23592,4.50367 6.80468,7.11601 11.21062,9.11871 4.40325,2.13666 8.77157,4.35804 13.17041,6.49459 3.23868,0.79174 6.63945,0.52969 9.87025,1.35732 6.37633,0.42654 12.25326,-3.06879 18.62681,-2.77404 5.70538,0.002 11.31007,1.21872 16.98268,1.65938 12.70273,1.39091 25.56671,3.29635 38.33238,1.55035 10.6209,-1.96199 20.00195,-10.5887 21.87011,-21.3759 1.55611,-8.648585 -1.18385,-17.464131 -5.41469,-24.96216 -8.2879,-15.229092 -22.07694,-27.480387 -38.40759,-33.432954 -5.58897,-2.101216 -11.46822,-3.276126 -17.37267,-4.052886 -12.5608,-2.035986 -25.26754,-3.359368 -38.0043,-3.283071 z"
       id="path4629-2"
       inkscape:connector-curvature="0"
       sodipodi:nodetypes="sssssssssssssssss" />
    <path
       style="fill:#4b8800;fill-opacity:1;stroke-width:0.09239505"
       d="m -436.26932,19.632812 c -25.83139,3.368567 -46.14044,25.424408 -52.75038,49.835584 -3.99257,15.821059 -5.26716,32.434924 -3.65587,48.650744 5.04134,22.43976 25.5635,38.57743 47.14493,43.96604 22.60839,5.48954 47.39464,-2.47655 63.31705,-19.26041 19.51119,-19.62103 27.47854,-49.940715 19.5366,-76.530051 -2.3154,-11.969891 -6.69126,-24.852707 -17.67274,-31.558615 -9.31321,-7.03035 -19.47082,-15.041602 -31.79828,-14.628182 -8.023,-0.615269 -16.08201,-0.440758 -24.12131,-0.47511 z"
       id="path4629-1"
       inkscape:connector-curvature="0"
       sodipodi:nodetypes="sssssssssssssssss" />
    <g
       id="g243"
       transform="translate(-23.900176)">
      <path
         sodipodi:nodetypes="ccccccccc"
         inkscape:connector-curvature="0"
         id="path4629-3-3-2"
         d="m -66.162109,56.322266 c -4.390819,-0.02283 -8.816331,0.04667 -13.121238,1.017207 -10.482702,2.148399 -20.410135,8.127556 -26.202443,17.266542 -6.7432,10.442073 -8.40968,23.556833 -6.19156,35.640315 2.00574,11.20801 7.03887,21.95138 14.728536,30.38298 6.111945,6.03084 14.675238,8.7072 23.006258,9.79783 6.441963,0.84001 12.971459,-0.12842 19.163352,-1.95426 6.664631,-1.86563 13.346875,-4.03895 19.31246,-7.61372 3.621542,-2.2883 6.394742,-5.69557 8.323269,-9.48838 3.450761,-6.27821 4.899197,-13.42074 5.510911,-20.49637 0.803991,-6.56199 1.975555,-13.258449 0.803384,-19.847108 -1.55048,-6.582104 -5.426709,-12.350425 -9.754804,-17.433552 -6.276353,-6.929042 -14.384195,-12.118258 -23.134075,-15.338659 -3.997018,-1.351454 -8.226907,-1.99205 -12.44405,-1.932825 z"
         style="fill:#6b9300;fill-opacity:1;stroke-width:0.09239505" />
    </g>
    <path
       style="fill:#6b9300;fill-opacity:1;stroke-width:0.09239505"
       d="m -209.7283,103.29688 c -6.84399,0.75442 -12.40923,5.19357 -18.65117,7.66827 -6.39089,3.4387 -10.69232,9.5266 -16.41694,13.83736 -2.74666,2.68906 -3.43956,6.72577 -3.27838,10.41541 -0.24347,4.89489 -1.52701,9.84113 -0.54931,14.72463 1.11294,4.97892 4.38141,9.18832 8.26668,12.3656 2.31217,2.62429 5.69966,4.8749 9.35217,4.2234 8.26501,-0.94777 15.99603,-4.22307 24.00114,-6.29095 5.92439,-1.6426 12.00722,-2.70115 18.1331,-3.18152 5.26542,-0.99332 10.8043,-3.2944 13.7044,-8.05175 2.28952,-4.48616 1.14376,-9.87505 -1.13578,-14.12192 -2.39548,-5.83655 -2.41203,-12.63809 -6.29115,-17.83853 -3.70446,-4.74529 -9.35425,-7.26561 -14.74355,-9.57003 -3.88718,-1.96203 -7.87931,-4.34005 -12.39121,-4.17997 z"
       id="path4629-3-3-28"
       inkscape:connector-curvature="0"
       sodipodi:nodetypes="sssssssssssssssss" />
    <path
       style="fill:#6b9300;fill-opacity:1;stroke-width:0.09239505"
       d="m -344.90603,24.394531 c -14.63882,1.260947 -29.59421,3.774374 -42.89454,10.308594 -16.12698,8.175534 -23.88686,25.945988 -29.02343,42.328125 -6.55185,18.087956 1.9467,37.98221 14.50155,51.27804 12.22115,13.31704 31.22557,15.7772 48.28998,17.13316 19.50999,1.1215 39.06452,-0.42277 58.52878,-1.53034 17.88312,-2.64144 33.41062,-17.34565 35.90422,-35.44021 3.91271,-20.897242 -1.23031,-43.307368 -13.24556,-60.758521 -9.08544,-12.478841 -24.2176,-18.408656 -38.94743,-20.948409 -10.9101,-2.008586 -22.04358,-2.422906 -33.11357,-2.370439 z"
       id="path4629-3-3-21"
       inkscape:connector-curvature="0"
       sodipodi:nodetypes="sssssssssssssssss" />
    <path
       style="fill:#4b8800;fill-opacity:1;stroke-width:0.09239505"
       d="m 216.1838,67.882812 c -13.45043,0.785445 -27.1794,3.67793 -38.66143,11.02566 -8.18893,6.014601 -15.44889,13.274437 -21.66311,21.302288 -0.97084,1.30689 -2.06302,2.67171 -1.97623,4.39471 -0.3947,5.85666 3.37699,11.54615 8.651,13.93428 7.13555,6.07772 11.85248,14.77548 20.08923,19.58916 6.66707,3.50954 14.39691,3.21843 21.68655,3.97034 6.73778,0.81071 12.91029,4.07582 19.67915,4.72735 4.8205,0.62501 9.69867,1.23339 14.2593,3.00738 4.20384,1.31936 8.44471,3.12033 12.9276,2.94164 6.13063,-0.91809 10.60928,-6.79044 11.01185,-12.79515 0.56329,-3.89146 -0.80047,-8.16013 1.3091,-11.74205 2.63237,-4.04395 7.33475,-6.13796 11.9366,-6.98037 2.30931,-0.58793 4.93613,-2.11999 5.15469,-4.74047 0.0701,-3.06246 -2.42964,-5.28421 -3.36198,-8.04214 -2.23291,-5.29848 -3.37863,-11.350285 -7.64192,-15.520362 -7.23071,-7.88058 -17.12122,-12.494456 -26.80385,-16.605486 -8.19092,-3.528195 -16.47335,-7.33805 -25.40905,-8.453108 -0.39567,-0.01488 -0.79159,-0.01762 -1.1875,-0.01367 z"
       id="path4629-5"
       inkscape:connector-curvature="0"
       sodipodi:nodetypes="sssssssssssssssss" />
    <path
       style="fill:#6b9300;fill-opacity:1;stroke-width:0.09239505"
       d="m 150.89279,102.42969 c -5.38758,0.79095 -9.96719,4.00474 -15.11543,5.55875 -4.6373,1.56872 -9.54892,2.78675 -13.52293,5.78543 -3.923,3.20118 -6.45147,7.67177 -9.17985,11.85057 -4.58023,7.49273 -6.67996,16.64242 -5.08289,25.33882 0.79201,4.54629 2.4079,9.13876 5.62847,12.54733 3.19929,3.1618 7.58483,4.77053 11.92497,5.6105 4.26504,0.72032 8.63025,0.26377 12.82424,-0.67075 5.41109,-1.10842 10.75496,-2.55828 16.22714,-3.35588 7.64318,-1.30049 15.3379,-2.28705 23.05476,-3.02582 3.65147,-0.4633 7.26353,-1.89501 9.91254,-4.50898 2.83252,-2.68255 4.55163,-6.36792 5.25385,-10.17209 0.8677,-4.37526 0.83728,-8.87114 0.58735,-13.30587 -0.46209,-5.64094 -2.20436,-11.31991 -5.79052,-15.77786 -3.31123,-4.25913 -7.36843,-7.89592 -11.72807,-11.05172 -2.89042,-1.96012 -6.25145,-3.18517 -9.71299,-3.61925 -3.40028,-0.50205 -6.82779,-0.80497 -10.25316,-1.07272 -1.67371,-0.0994 -3.35086,-0.14381 -5.02748,-0.13046 z"
       id="path4629-3-3-28-8"
       inkscape:connector-curvature="0"
       sodipodi:nodetypes="sssssssssssssssss" />
    <path
       style="fill:#4b8800;fill-opacity:1;stroke-width:0.09239505"
       d="m 366.06857,54.283203 c -22.37214,0.533771 -45.57395,5.505716 -63.72019,19.253217 -10.78956,8.510552 -17.24488,21.923846 -18.35278,35.50379 -0.0189,5.90172 0.88559,11.85497 2.4597,17.51252 2.84868,5.88162 9.19833,8.76446 15.11133,10.60352 4.0711,1.81056 6.66321,5.79058 7.84877,9.94543 2.61892,5.45994 8.89527,9.10706 14.94615,7.73816 6.71501,-0.87426 11.70922,-5.89817 16.55469,-10.10937 9.71577,-4.85043 21.03566,-2.46504 31.17219,-5.76788 11.70335,-2.65935 24.01947,-7.0326 31.67576,-16.80002 9.15193,-13.1227 11.76308,-31.306187 4.65768,-45.910252 -8.19027,-14.912703 -25.95135,-22.150082 -42.3533,-21.969115 z"
       id="path4629-9"
       inkscape:connector-curvature="0"
       sodipodi:nodetypes="sssssssssssssssss" />
    <path
       style="fill:#6b9300;fill-opacity:1;stroke-width:0.09239505"
       d="m 294.29709,104.87891 c -12.04484,2.71197 -23.64335,7.27865 -34.61439,12.88561 -10.60443,6.83862 -15.08513,20.21433 -14.4989,32.36829 0.25074,8.66042 4.79055,17.06701 12.18555,21.67578 10.84008,7.40569 24.68394,9.87319 37.48027,7.14619 14.29687,-2.89173 27.91341,-12.13775 33.71544,-25.82247 3.38621,-8.19505 1.905,-17.26129 0.16134,-25.65006 -1.465,-6.86457 -5.39608,-13.35127 -11.63829,-16.82795 -6.62703,-3.9248 -14.44926,-5.49084 -22.03375,-5.93757 -0.25242,0.0541 -0.50484,0.10812 -0.75727,0.16218 z"
       id="path4629-3-3-28-84"
       inkscape:connector-curvature="0"
       sodipodi:nodetypes="sssssssssssssssss" />
    <path
       style="fill:#4b8800;fill-opacity:1;stroke-width:0.09239505"
       d="m 508.65451,103.57617 c -14.28704,0.8918 -28.78861,4.4053 -40.7715,12.50976 -7.54993,5.56058 -12.89361,14.71413 -12.3848,24.26131 0.59453,6.8266 2.80835,13.65485 1.47568,20.53507 -0.51118,5.10956 -0.2469,10.80483 3.15481,14.95399 4.95133,6.52577 13.98446,9.16575 21.82305,7.26326 5.5954,-0.75073 11.37258,0.15049 16.49807,2.49853 9.5804,2.95946 20.44656,3.07913 29.53658,-1.52991 7.87458,-4.29386 14.94932,-9.95558 23.07106,-13.8091 4.23661,-2.79099 7.11163,-7.94427 6.26717,-13.08272 -0.48454,-6.07798 -3.71546,-11.70169 -3.316,-17.88467 -0.28568,-5.23874 -1.57756,-10.51924 -4.22504,-15.07788 -4.28658,-6.59009 -11.29056,-10.79385 -18.35691,-13.86104 -4.78502,-1.87982 -9.42987,-4.15009 -14.36788,-5.61839 -2.72487,-0.78865 -5.56063,-1.26638 -8.40429,-1.15821 z"
       id="path4629-4"
       inkscape:connector-curvature="0"
       sodipodi:nodetypes="sssssssssssssssss" />
    <path
       style="fill:#6b9300;fill-opacity:1;stroke-width:0.09239505"
       d="m 441.62522,96.318359 c -14.65258,0.638885 -28.25604,7.321471 -42.86201,8.324921 -15.13806,2.89145 -29.86337,12.56448 -35.46401,27.38104 -3.32419,9.47286 -0.0575,20.25255 6.59308,27.47077 5.72924,7.82463 12.86311,16.0835 22.96731,17.72366 8.79459,1.3649 17.73233,-0.38243 26.54066,0.96228 7.9613,0.89693 16.12428,0.96704 23.86951,-1.34595 12.99238,-3.46907 25.49716,-11.63487 31.35937,-24.07141 4.3561,-10.85653 1.13517,-23.23286 -5.10157,-32.66992 -4.38823,-7.41753 -7.27254,-16.66034 -15.31054,-21.042969 -3.82594,-2.119738 -8.26531,-2.800721 -12.5918,-2.732422 z"
       id="path4629-3-3-28-9"
       inkscape:connector-curvature="0"
       sodipodi:nodetypes="sssssssssssssssss" />
    <path
       style="fill:#6b9300;fill-opacity:1;stroke-width:0.09239505"
       d="m 572.72873,108.8418 c -14.20908,0.62486 -29.28271,3.50487 -40.33577,13.08039 -7.96377,8.93252 -9.04058,21.68993 -8.04012,33.10832 0.45582,11.02707 7.49974,20.91873 16.86065,26.38851 11.19108,7.69448 25.18559,9.6773 38.48482,9.1066 14.24281,-0.0597 29.35033,0.0121 42.2101,-6.97679 9.6667,-5.44962 16.40805,-15.75544 17.16664,-26.87181 1.7249,-16.5721 -7.80178,-33.20381 -22.26139,-41.14083 -9.34844,-5.29505 -20.33251,-6.70389 -30.91675,-6.3126 -4.38103,-0.27653 -8.77775,-0.54549 -13.16818,-0.38179 z"
       id="path4629-3-3-28-8-0"
       inkscape:connector-curvature="0"
       sodipodi:nodetypes="sssssssssssssssss" />
  </g>
</svg>
