<?xml version="1.0" encoding="UTF-8" standalone="no"?>
<!-- Created with Inkscape (http://www.inkscape.org/) -->

<svg
   xmlns:dc="http://purl.org/dc/elements/1.1/"
   xmlns:cc="http://creativecommons.org/ns#"
   xmlns:rdf="http://www.w3.org/1999/02/22-rdf-syntax-ns#"
   xmlns:svg="http://www.w3.org/2000/svg"
   xmlns="http://www.w3.org/2000/svg"
   xmlns:xlink="http://www.w3.org/1999/xlink"
   xmlns:sodipodi="http://sodipodi.sourceforge.net/DTD/sodipodi-0.dtd"
   xmlns:inkscape="http://www.inkscape.org/namespaces/inkscape"
   width="210mm"
   height="297mm"
   viewBox="0 0 210 297"
   version="1.1"
   id="svg115"
   inkscape:version="0.92.1 r15371"
   sodipodi:docname="jungle1.svg">
  <defs
     id="defs109">
    <linearGradient
       inkscape:collect="always"
       id="linearGradient12">
      <stop
         style="stop-color:#4d8200;stop-opacity:1;"
         offset="0"
         id="stop8" />
      <stop
         style="stop-color:#654e00;stop-opacity:1"
         offset="1"
         id="stop10" />
    </linearGradient>
    <linearGradient
       inkscape:collect="always"
       xlink:href="#linearGradient12"
       id="linearGradient14"
       x1="100.22855"
       y1="176.80357"
       x2="101.29763"
       y2="240.45554"
       gradientUnits="userSpaceOnUse" />
  </defs>
  <sodipodi:namedview
     id="base"
     pagecolor="#ffffff"
     bordercolor="#666666"
     borderopacity="1.0"
     inkscape:pageopacity="0.0"
     inkscape:pageshadow="2"
     inkscape:zoom="0.35"
     inkscape:cx="-951.96187"
     inkscape:cy="927.82056"
     inkscape:document-units="mm"
     inkscape:current-layer="layer1"
     showgrid="false"
     inkscape:window-width="1366"
     inkscape:window-height="705"
     inkscape:window-x="-8"
     inkscape:window-y="-8"
     inkscape:window-maximized="1"
     inkscape:snap-global="false" />
  <metadata
     id="metadata112">
    <rdf:RDF>
      <cc:Work
         rdf:about="">
        <dc:format>image/svg+xml</dc:format>
        <dc:type
           rdf:resource="http://purl.org/dc/dcmitype/StillImage" />
        <dc:title></dc:title>
      </cc:Work>
    </rdf:RDF>
  </metadata>
  <g
     inkscape:label="Layer 1"
     inkscape:groupmode="layer"
     id="layer1">
    <path
       style="opacity:1;fill:#3c2003;fill-opacity:1;fill-rule:nonzero;stroke:none;stroke-width:0.7363435;stroke-miterlimit:4;stroke-dasharray:none;stroke-opacity:1"
       d="m -425.87296,-50.029589 c 0,83.818127 0,167.636259 0,251.454379 45.21933,-0.008 90.4386,-0.0177 135.65793,-0.0266 -0.69397,-7.97274 2.71707,-15.98174 1.14047,-23.91603 -1.58774,-0.9126 -5.08299,-2.2698 -1.10117,-3.06893 0.85638,-1.16601 -2.63038,-2.21649 -0.81647,-3.48819 2.87997,-10.54971 2.53777,-21.20314 1.33759,-31.77389 1.96815,-2.0347 5.10103,-4.36787 2.33011,-6.57717 1.21978,-2.0106 3.48421,-4.07523 0.70787,-6.06839 -1.14331,-0.91495 0.38811,-2.26837 -0.13772,-2.883 -2.65694,-1.28746 0.78359,-3.18204 -0.92652,-4.71101 -0.26427,-2.32554 2.45251,-4.63217 0.88714,-6.94358 -3.62258,-0.0301 1.81531,-1.51795 1.36662,-2.35996 1.92501,-1.04546 -1.2314,-1.8823 0.51126,-2.73791 0.2403,-1.35357 -5.05449,-2.16557 -4.14409,-3.37134 3.05219,-0.29835 -3.07434,-1.62958 1.19455,-1.59576 2.26002,0.18166 2.63995,-1.14048 0.41296,-0.92558 1.02933,-1.779699 2.05369,-3.5854 0.58804,-5.396766 -1.12963,-1.618372 0.75554,-3.269162 1.29963,-4.664112 -1.04471,-2.553083 0.35888,-5.210019 -1.34201,-7.715243 0.902,-3.742132 1.57218,-7.475234 0.73288,-11.228377 0.15634,-4.230954 -0.25451,-8.519883 -0.0889,-12.712167 1.2779,-1.086694 2.80494,-2.647482 0.21136,-3.469407 1.63032,-1.00542 2.22336,-2.2128 -0.36868,-3.013766 -0.48296,-1.240369 0.9697,-2.493503 0.82587,-3.563396 -4.18887,-0.09713 -0.33285,-2.74927 -0.45226,-3.93935 -1.30135,-1.164502 -0.95572,-2.21291 0.69311,-3.340685 0.38222,-2.033141 0.17779,-4.141868 1.62512,-6.179926 1.81824,-3.053666 -0.70507,-6.117259 0.41705,-9.19672 -1.55822,-1.541231 0.88029,-3.213304 -1.26053,-4.70832 2.67681,-1.039235 -0.14419,-2.76028 1.29286,-3.724812 3.62218,-0.333069 -3.35185,-2.221953 0.74721,-2.639856 -0.28424,-0.820955 -1.45714,-2.660555 -0.69497,-3.922991 0.89925,-1.052708 1.18117,-2.1025172 1.05384,-3.2814427 -1.6167,-1.4136143 -1.77574,-3.2402268 -0.75215,-4.8036375 -1.27074,-0.3949767 -3.27502,-0.4418755 -1.77953,-1.2586307 -0.67018,-1.1019152 2.82283,-1.66918571 0.79639,-2.77675164 0.78101,-1.06003016 0.60634,-2.52512296 1.04705,-3.48166676 1.4796,0.4741581 -0.91619,-0.8856212 -0.16201,-1.3955272 -1.42373,-0.3083542 3.18818,-0.1211671 1.45512,-1.1809879 -2.71409,-2.1192282 -0.58035,-4.7261366 -1.52886,-6.5669466 -2.4169,-0.116283 0.39085,-0.745007 -0.2279,-1.19078 0.46848,-0.768894 -0.81113,-1.72488 -0.11627,-2.266368 0.46771,-0.594629 0.78735,-1.533405 1.33206,-2.529625 -0.23695,-1.342138 -0.69621,-2.976302 -0.63734,-4.172617 2.1612,-0.726712 -0.076,-1.03605 -1.43705,-2.267545 2.01796,-0.678351 5.33575,-1.159896 3.53577,-1.699233 -2.52098,0.02383 -2.40979,-0.85276 1.16381,-1.318619 -4.59982,-0.339303 -0.42955,-1.021661 -1.96773,-1.444632 -1.94043,-2.101691 0.71016,0.606949 1.03069,-0.430716 0.19094,-0.96629 -0.10803,-1.236364 -1.99352,-2.493857 0.98125,-1.106352 1.58749,-1.376397 0.37433,-1.925993 0.18423,-1.558221 -0.58622,-2.794903 -1.86961,-3.469569 6.39357,-0.184409 -2.62272,-1.3568 1.82842,-1.443677 -3.81193,-0.516167 0.84702,4.4e-4 -2.53243,-1.428109 -2.61099,-0.913942 2.22568,-0.851321 1.19076,-2.12757 -0.60189,-1.558347 0.74405,-0.498018 0.49799,-1.086566 -0.64958,-0.719786 -0.0882,-1.55807 0.91153,-2.296954 -1.0944,-0.860834 -0.4361,-1.839815 0.3124,-2.89031 -0.83024,-2.816716 2.22166,-5.228589 -0.23384,-7.884322 -0.75215,-1.671297 -0.46697,-3.529411 1.38924,-4.987198 2.38757,-0.820472 -0.46428,-0.962371 -1.72546,-1.22594 2.49393,-1.662886 -2.14825,-3.099176 -5.3337,-1.838907 -1.85921,-0.940373 -5.44768,0.567674 -8.35698,0.167545 -43.29169,-0.548197 -86.60947,-0.888682 -129.91129,-1.356706 0,5.587557 0,11.175114 0,16.762673 z m 143.45446,18.053995 c -2.12103,-0.997873 0.29518,-1.761222 0,0 z m -0.24548,2.249596 c -0.054,-0.007 0.0331,-0.01903 0,0 z m 0.79632,26.0103399 c -0.0261,-0.060683 -0.45172,-0.2358384 0,0 z m -2.90525,3.82492944 c 0.71,0.39054486 -0.19791,-0.01749692 0,0 z m 0.55552,0.0653834 c -0.0977,0.17446395 -0.1584,-0.0110501 0,0 z m -0.14729,5.63318956 c -0.20103,0.087342 -0.0578,-0.1415154 0,0 z m -2.62997,42.5359957 c 0.0331,0.242776 0.34273,0.217008 0,0 z m 2.55134,1.279064 c 10e-4,0.715226 0.21007,-0.74326 0,0 z m -0.85536,1.475212 c 0.31312,0.627319 1.264,-0.394563 0,0 z m 1.52884,2.934082 c -0.60511,0.302269 0.98635,-0.02154 0,0 z m -0.47686,0.100126 c 0.0484,0.138332 0.34543,-0.07859 0,0 z m 0.55548,0.621142 c -0.74886,0.2787 3.05503,-0.190111 0,0 z m -0.29003,0.480159 c -1.12712,0.311723 0.55768,-0.117219 0,0 z m -0.93396,0.901064 c 0.27555,-0.003 0.30963,-0.09122 0,0 z m -1.39612,0.541457 c -0.0109,0.209701 -0.22918,-0.221817 0,0 z m 1.88277,0.623186 c -0.49725,0.179685 0.37739,-0.09673 0,0 z m 0.3097,0.467899 0.10306,-0.0286 z m -0.65382,30.503405 c -0.23462,0.234565 0.2111,-0.163426 0,0 z m -0.7177,0.04291 c -1.58709,0.209242 1.24041,-0.03185 0,0 z m -1.04218,0.876545 c 0.4852,0.395522 -0.12635,0.0091 0,0 z m -1.81886,2.856438 c -0.0457,0.05679 -0.11057,-0.09368 0,0 z m 1.56324,3.075064 c -0.29996,0.633398 0.93293,-0.107884 0,0 z m 0.73736,0.13281 c -0.46193,0.448088 1.03347,-0.150002 0,0 z m -1.6124,0.185936 c 0.60528,0.591892 -1.04235,-0.126011 0,0 z m 1.4158,0.108289 c 0.12635,0.0097 -0.0589,-0.06547 0,0 z m -1.35189,0.136897 c -0.0404,0.08437 -0.27991,-0.07061 0,0 z m 0.0443,0.128723 c -0.10391,0.142059 -0.28828,-0.09602 0,0 z m -3.57381,6.215522 c 0.72558,0.0535 0.35274,0.0576 -0.0738,0 z m 1.04706,0.51693 c 2.59192,0.30256 -0.94122,0.0115 0,0 z m 2.36456,6.01526 c 0.1987,0.16874 -0.15866,0.10082 0,0 z m 0.31461,0.0225 c 1.61538,0.41694 0.24624,0.14512 0,0 z m -0.86028,0.17777 c 0.41043,0.69011 -2.56643,0.0598 -0.0786,-0.0614 z m 1.1552,0.0715 c 0.0386,0.0957 -0.22609,-0.14248 0,0 z m -0.62429,0.19206 c 0.12765,0.13854 -0.32592,-0.0343 0,0 z m -0.1819,0.0163 c 0.14573,0.0318 -0.1073,0.0265 0,0 z m 0.51616,0.0654 c -0.082,0.062 -0.005,-0.10521 0,0 z m 0.96842,0.0674 c 1.47168,0.24758 -1.14661,0.0688 0,0 z m -0.24597,0.0369 c 0.005,0.0635 0.10003,-0.0276 0,0 z m -2.29571,0.0225 c -0.18761,0.0184 0.18422,-0.0449 0,0 z m 6.2923,0.37391 c -1.63873,-0.0508 -2.29747,-0.071 0,0 z m -3.89831,1.71839 c 0.19482,0.0849 -0.10754,-0.15561 0,0 z m -0.33915,0.0694 c -8.06477,1.69454 1.0653,-0.13107 0,0 z m 0.74226,0.17776 c -0.72839,0.86208 1.59681,-0.36185 0,0 z m -1.36169,-0.0245 c 0.12377,0.0744 -0.10161,-0.15426 0,0 z m 0.34411,0.0369 c 0.013,0.0984 0.21292,-0.0558 0,0 z m -1.21421,1.53855 c 2.41837,1.83749 -4.60073,-0.15429 0,0 z m 0.30967,-0.15528 c 0.22067,0.15843 -0.11373,0.0937 0,0 z m 2.15811,0.35552 c -0.73661,0.53446 1.42746,-0.10577 0,0 z m -1.77463,0.0879 c 0.20387,0.0963 -0.1465,-0.004 0,0 z m 1.01265,0.22477 c -0.06,0.11318 -0.24987,-0.0562 0,0 z m -0.0443,0.27787 c -0.0592,0.16346 -0.3508,-0.2188 0,0 z m -0.30479,0.0286 c 0.20336,0.15831 -0.16381,-0.034 0,0 z m 0.27038,0.13075 c 0.005,0.18029 -0.1961,-0.40169 0,0 z m -0.56039,-0.0204 c 0.49623,0.11156 -0.21627,0.0566 0,0 z m 1.09621,0.0348 c 0.10779,0.14579 0.28862,-0.11624 0,0 z m -2.08919,0.045 c 0.16873,0.14294 -0.18966,-0.0622 0,0 z m -0.0884,0.22885 c -0.14573,0.0647 10e-4,-0.10774 0,0 z m 0.70788,0.0756 c 0.36807,0.15777 -1.19667,-0.18302 0,0 z m -0.36869,0.50469 c 0.47482,0.19208 -1.00324,-0.27487 0,0 z m -0.19148,0.20432 c 1.79242,0.79764 -1.54708,-0.40522 0,0 z m 1.94668,2.24144 c -0.0457,0.0595 0.12789,-0.0292 0,0 z m -0.467,0.38003 c 0.49386,0.1364 0.73716,-0.0884 0,0 z m -0.3392,3.92506 c 0.0587,0.17054 0.50935,-0.15557 0,0 z m 0.74723,0.59049 c -1.34765,0.5914 3.02625,-0.45209 0.0333,-0.009 z m -0.57512,0.1328 c 0.19043,0.24668 0.16355,-0.009 0,0 z m 1.73036,0.29013 c 0.42068,0.0917 -1.21204,-0.44973 0,0 z m -0.64894,0.89494 c 0.21395,-0.009 0.19251,-0.0925 0,0 z m -1.50422,0.17572 c 0.3238,0.10775 -0.25529,-0.0289 0,0 z m 0.74229,1.4221 c 0.81698,-0.10478 0.41064,-0.0527 0,0 z m 1.44525,1.51403 c -0.14394,0.35993 0.39747,-0.40794 0,0 z m 0.43258,0.87655 0.25554,-0.0878 z m -0.0982,0.045 c -0.53581,0.11887 0.35567,-0.008 0,0 z m -0.74231,0.096 c 0.007,0.17305 0.21213,-0.0473 0,0 z m 0.63907,0.0654 c -0.60606,2.43912 0.16407,-0.36576 0,0 z m 0.0834,1.06862 c -0.0299,0.19421 0.19973,-0.33379 0,0 z m 0.17234,0.0633 c -0.17261,0.25328 0.22376,-0.008 0,0 z m 0.39322,0.0858 c -0.2372,0.11132 0.17544,-0.003 0,0 z m -1.78446,0.0879 c 0.12124,0.25968 -0.43788,-0.12607 0,0 z m 1.56816,0.24316 c -0.20336,0.23988 0.38375,0.0888 0,0 z m 0.35887,0.0634 0.349,-0.0674 z m 1.04217,0.50672 c -0.52556,0.14815 0.21008,0.0548 0,0 z m -0.49651,0.42297 c -0.12144,0.20918 0.18991,0.006 0,0 z m -0.44737,0.23497 c 0.0578,0.087 0.0566,-0.18787 0,0 z m -3.25425,0.17162 c 0.12944,0.0548 -1.33571,-0.21274 0,0 z m 1.61241,4.71374 c -0.0292,0.0838 0.0909,-0.0121 0,0 z m -0.12274,0.11441 c -0.40917,0.15283 0.7815,-0.20627 0,0 z m -3.34278,4.65447 -0.0155,-0.19974 -5e-5,-4.9e-4 0.0155,0.19975 z"
       id="rect4487"
       inkscape:connector-curvature="0"
       sodipodi:nodetypes="ccccccccccccccccccccccccccccccccccccccc" />
    <path
       style="fill:url(#linearGradient14);fill-opacity:1;stroke-width:0.10324629"
       d="m -57.452388,176.72966 c 13.82763,0 28.83521,-2.94989 42.66284,-2.94989 13.82762978,0 29.4252,2.35992 43.25282,2.35992 13.82763,0 30.31017,2.06492 44.13779,2.06492 13.82763,0 24.41038,-3.24488 38.238008,-3.24488 13.82763,0 29.72018,-0.88497 43.54781,-0.88497 13.82762,0 29.1302,3.24488 42.95783,3.24488 13.82762,0 22.93542,-2.35991 36.76305,-2.35991 13.82763,0 26.4753,1.76993 40.30293,1.76993 19.40278,2.06937 76.60317,-8.71246 108.10119,-9.6669 55.18452,1.31341 108.10119,23.7935 156.48214,22.0831 37.54564,0.55746 66.77579,-14.76008 101.29762,-16.47047 v 131.69619 l -1067.40474,0 0,-131.23798 c 27.46627,0.0496 39.05753,8.41473 61.98809,13.75601 24.94643,7.10518 45.35715,10.4306 70.30357,9.97625 38.55357,0.45048 69.54762,-24.80143 102.05358,-25.86286 31.75,0.70246 45.35714,5.94063 68.03571,8.91095 23.93849,4.23024 44.853175,-2.12286 67.279762,-3.18429 z"
       id="rect117"
       inkscape:connector-curvature="0"
       sodipodi:nodetypes="cccccccccccccccccccc" />
  </g>
</svg>
