<?xml version="1.0" encoding="UTF-8" standalone="no"?>
<!-- Created with Inkscape (http://www.inkscape.org/) -->

<svg
   xmlns:dc="http://purl.org/dc/elements/1.1/"
   xmlns:cc="http://creativecommons.org/ns#"
   xmlns:rdf="http://www.w3.org/1999/02/22-rdf-syntax-ns#"
   xmlns:svg="http://www.w3.org/2000/svg"
   xmlns="http://www.w3.org/2000/svg"
   xmlns:xlink="http://www.w3.org/1999/xlink"
   xmlns:sodipodi="http://sodipodi.sourceforge.net/DTD/sodipodi-0.dtd"
   xmlns:inkscape="http://www.inkscape.org/namespaces/inkscape"
   width="210mm"
   height="297mm"
   viewBox="0 0 210 297"
   version="1.1"
   id="svg115"
   inkscape:version="0.92.1 r15371"
   sodipodi:docname="jungle2.svg">
  <defs
     id="defs109">
    <linearGradient
       inkscape:collect="always"
       id="linearGradient12">
      <stop
         style="stop-color:#4d8200;stop-opacity:1;"
         offset="0"
         id="stop8" />
      <stop
         style="stop-color:#654e00;stop-opacity:1"
         offset="1"
         id="stop10" />
    </linearGradient>
    <linearGradient
       inkscape:collect="always"
       xlink:href="#linearGradient12"
       id="linearGradient14"
       x1="100.22855"
       y1="176.80357"
       x2="101.29763"
       y2="240.45554"
       gradientUnits="userSpaceOnUse" />
  </defs>
  <sodipodi:namedview
     id="base"
     pagecolor="#ffffff"
     bordercolor="#666666"
     borderopacity="1.0"
     inkscape:pageopacity="0.0"
     inkscape:pageshadow="2"
     inkscape:zoom="0.49497474"
     inkscape:cx="-853.64086"
     inkscape:cy="1056.8117"
     inkscape:document-units="mm"
     inkscape:current-layer="layer1"
     showgrid="false"
     inkscape:window-width="1366"
     inkscape:window-height="705"
     inkscape:window-x="-8"
     inkscape:window-y="-8"
     inkscape:window-maximized="1"
     inkscape:snap-global="false" />
  <metadata
     id="metadata112">
    <rdf:RDF>
      <cc:Work
         rdf:about="">
        <dc:format>image/svg+xml</dc:format>
        <dc:type
           rdf:resource="http://purl.org/dc/dcmitype/StillImage" />
        <dc:title></dc:title>
      </cc:Work>
    </rdf:RDF>
  </metadata>
  <g
     inkscape:label="Layer 1"
     inkscape:groupmode="layer"
     id="layer1">
    <path
       style="opacity:1;fill:#3c2003;fill-opacity:1;fill-rule:nonzero;stroke:#000000;stroke-width:0.45378712;stroke-miterlimit:4;stroke-dasharray:none;stroke-opacity:1"
       d="M -427.53711 -50.902344 C -427.53711 29.219401 -427.53711 109.34115 -427.53711 189.46289 C -409.57096 189.45443 -391.60482 189.44596 -373.63867 189.4375 C -373.9144 181.81635 -372.55915 174.16056 -373.18555 166.57617 C -373.81638 165.70381 -375.20507 164.40647 -373.62305 163.64258 C -373.28281 162.52799 -374.66813 161.52383 -373.94745 160.30821 C -372.80321 150.22375 -372.93916 140.04013 -373.41602 129.93555 C -372.63403 127.99059 -371.38931 125.76031 -372.49023 123.64844 C -372.00559 121.72651 -371.10591 119.75293 -372.20898 117.84766 C -372.66324 116.97307 -372.05479 115.67933 -372.26367 115.0918 C -373.3193 113.86113 -371.95234 112.05009 -372.63177 110.58856 C -372.73678 108.36557 -371.65737 106.16066 -372.2793 103.95117 C -373.71861 103.92247 -371.55806 102.50018 -371.73633 101.69531 C -370.9715 100.69595 -372.22559 99.896011 -371.5332 99.078125 C -371.4377 97.784249 -373.54141 97.008066 -373.17969 95.855469 C -371.96704 95.570275 -374.40117 94.297752 -372.70508 94.330078 C -371.80715 94.503732 -371.65621 93.23989 -372.54102 93.445312 C -372.13205 91.744103 -371.72506 90.018032 -372.30739 88.286548 C -372.75619 86.739548 -372.0072 85.161557 -371.79102 83.828125 C -372.2061 81.387633 -371.64843 78.847868 -372.32422 76.453125 C -371.96584 72.876021 -371.69957 69.307548 -372.03303 65.719918 C -371.97096 61.675551 -372.13412 57.575763 -372.06836 53.568359 C -371.56062 52.529589 -370.95391 51.037632 -371.98438 50.251953 C -371.33664 49.290872 -371.10101 48.136738 -372.13086 47.371094 C -372.32274 46.185425 -371.74558 44.987555 -371.80273 43.964844 C -373.46702 43.871999 -371.93498 41.336817 -371.98242 40.199219 C -372.49945 39.086073 -372.36213 38.083898 -371.70703 37.005859 C -371.55518 35.062379 -371.63644 33.046648 -371.06136 31.098467 C -370.33895 28.17947 -371.34148 25.25098 -370.89566 22.307324 C -371.51476 20.834062 -370.54591 19.235726 -371.39648 17.806641 C -370.33295 16.813236 -371.45373 15.16809 -370.88281 14.246094 C -369.44369 13.927714 -372.21455 12.12213 -370.58594 11.722656 C -370.69887 10.937905 -371.16488 9.1794316 -370.86206 7.9726686 C -370.50478 6.9663849 -370.39277 5.9628722 -370.44336 4.8359375 C -371.08569 3.4846636 -371.14888 1.7386048 -370.74219 0.24414062 C -371.24707 -0.13341759 -372.0434 -0.17824813 -371.44922 -0.95898438 C -371.71549 -2.012305 -370.32768 -2.5545589 -371.13281 -3.6132812 C -370.8225 -4.6265639 -370.8919 -6.027046 -370.7168 -6.9414062 C -370.12893 -6.4881586 -371.08081 -7.7879715 -370.78125 -8.2753906 C -371.34691 -8.5701464 -369.51456 -8.3912142 -370.20312 -9.4042969 C -371.28146 -11.430066 -370.43369 -13.92201 -370.81055 -15.681641 C -371.77082 -15.792796 -370.65526 -16.393794 -370.9011 -16.819907 C -370.71497 -17.554892 -371.22337 -18.46872 -370.94727 -18.986328 C -370.76144 -19.554734 -370.63444 -20.45211 -370.41802 -21.404397 C -370.51206 -22.687346 -370.69463 -24.249445 -370.67124 -25.393002 C -369.81257 -26.087665 -370.70142 -26.383361 -371.24219 -27.560547 C -370.44044 -28.208983 -369.12225 -28.669291 -369.83739 -29.184845 C -370.83901 -29.162058 -370.79484 -29.999997 -369.375 -30.445312 C -371.20256 -30.769653 -369.54566 -31.421917 -370.1568 -31.826236 C -370.92776 -33.835241 -369.87464 -31.246052 -369.74729 -32.237958 C -369.67144 -33.161634 -369.79027 -33.419798 -370.53935 -34.621835 C -370.14948 -35.679396 -369.90862 -35.937533 -370.39062 -36.462891 C -370.31742 -37.952395 -370.62353 -39.13454 -371.13344 -39.779452 C -368.59319 -39.955728 -372.17547 -41.076417 -370.40699 -41.159463 C -371.92151 -41.652868 -370.07046 -41.159043 -371.41314 -42.524593 C -372.45053 -43.39823 -370.52886 -43.33837 -370.94005 -44.558337 C -371.17919 -46.047961 -370.64443 -45.034391 -370.74219 -45.596984 C -371.00028 -46.285027 -370.77726 -47.086343 -370.38002 -47.792643 C -370.81484 -48.615514 -370.55329 -49.551322 -370.25591 -50.555489 C -370.58578 -53.247989 -369.37321 -55.553498 -370.34883 -58.092114 C -370.64767 -59.689704 -370.53437 -61.465877 -369.79688 -62.859375 C -368.84827 -63.643666 -369.98134 -63.779306 -370.48242 -64.03125 C -369.49155 -65.620805 -371.33594 -66.993753 -372.60156 -65.789062 C -373.34024 -66.687966 -374.76599 -65.246423 -375.92188 -65.628906 C -393.12216 -66.152928 -410.33282 -66.478397 -427.53711 -66.925781 C -427.53711 -61.584635 -427.53711 -56.24349 -427.53711 -50.902344 z M -370.54102 -33.644531 C -371.38373 -34.598397 -370.42374 -35.328083 -370.54102 -33.644531 z M -370.63867 -31.494141 C -370.66007 -31.500826 -370.62556 -31.512329 -370.63867 -31.494141 z M -370.32227 -6.6308594 C -370.33254 -6.6888659 -370.50176 -6.8562973 -370.32227 -6.6308594 z M -371.47656 -2.9746094 C -371.19447 -2.6012877 -371.5552 -2.9913362 -371.47656 -2.9746094 z M -371.25586 -2.9121094 C -371.2947 -2.7453394 -371.31867 -2.922673 -371.25586 -2.9121094 z M -371.31445 2.4726562 C -371.39434 2.5561461 -371.33741 2.3373816 -371.31445 2.4726562 z M -372.35938 43.132812 C -372.34631 43.364882 -372.22322 43.340249 -372.35938 43.132812 z M -371.3457 44.355469 C -371.34514 45.039154 -371.26215 43.644988 -371.3457 44.355469 z M -371.68555 45.765625 C -371.56114 46.365279 -371.18335 45.388461 -371.68555 45.765625 z M -371.07812 48.570312 C -371.31853 48.859252 -370.68624 48.549734 -371.07812 48.570312 z M -371.26758 48.666016 C -371.24836 48.798249 -371.13035 48.590893 -371.26758 48.666016 z M -371.04688 49.259766 C -371.34442 49.526175 -369.83309 49.07804 -371.04688 49.259766 z M -371.16211 49.71875 C -371.60994 50.016727 -370.94054 49.6067 -371.16211 49.71875 z M -371.5332 50.580078 C -371.42371 50.577212 -371.41016 50.492885 -371.5332 50.580078 z M -372.08789 51.097656 C -372.09157 51.29811 -372.17888 50.885622 -372.08789 51.097656 z M -371.33984 51.693359 C -371.5374 51.865121 -371.18989 51.600904 -371.33984 51.693359 z M -371.2168 52.140625 L -371.17578 52.113281 L -371.2168 52.140625 z M -371.47656 81.298828 C -371.56976 81.523047 -371.39258 81.142609 -371.47656 81.298828 z M -371.76172 81.339844 C -372.39229 81.539858 -371.26888 81.309392 -371.76172 81.339844 z M -372.17578 82.177734 C -371.98301 82.555812 -372.22588 82.186408 -372.17578 82.177734 z M -372.89844 84.908203 C -372.91663 84.962478 -372.94237 84.818653 -372.89844 84.908203 z M -372.27734 87.847656 C -372.39652 88.45312 -371.90667 87.74453 -372.27734 87.847656 z M -371.98438 87.974609 C -372.16791 88.402936 -371.57377 87.831222 -371.98438 87.974609 z M -372.625 88.152344 C -372.38452 88.718136 -373.03914 88.03189 -372.625 88.152344 z M -372.0625 88.255859 C -372.01227 88.265191 -372.08591 88.193268 -372.0625 88.255859 z M -372.59961 88.386719 C -372.61562 88.467369 -372.71083 88.319221 -372.59961 88.386719 z M -372.58203 88.509766 C -372.62335 88.645559 -372.69658 88.41798 -372.58203 88.509766 z M -374.00195 94.451172 C -373.71368 94.502292 -373.86181 94.506165 -374.03125 94.451172 L -374.00195 94.451172 z M -373.58594 94.945312 C -372.55615 95.234532 -373.95991 94.956258 -373.58594 94.945312 z M -372.64648 100.69531 C -372.56754 100.8566 -372.70937 100.79172 -372.64648 100.69531 z M -372.52148 100.7168 C -371.87966 101.11536 -372.42363 100.8555 -372.52148 100.7168 z M -372.86328 100.88672 C -372.70021 101.54638 -373.88294 100.94388 -372.89453 100.82812 L -372.86328 100.88672 z M -372.4043 100.95508 C -372.38904 101.04658 -372.49405 100.81887 -372.4043 100.95508 z M -372.65234 101.13867 C -372.60155 101.27109 -372.78184 101.10588 -372.65234 101.13867 z M -372.72461 101.1543 C -372.66679 101.18468 -372.76722 101.17964 -372.72461 101.1543 z M -372.51953 101.2168 C -372.55206 101.27605 -372.52146 101.11625 -372.51953 101.2168 z M -372.13477 101.28125 C -371.55005 101.51791 -372.59033 101.34709 -372.13477 101.28125 z M -372.23242 101.31641 C -372.23077 101.37702 -372.19274 101.28998 -372.23242 101.31641 z M -373.14453 101.33789 C -373.21906 101.35551 -373.07129 101.29503 -373.14453 101.33789 z M -370.64453 101.69531 C -371.29562 101.64685 -371.55733 101.62737 -370.64453 101.69531 z M -372.19336 103.33789 C -372.11594 103.41911 -372.23609 103.18917 -372.19336 103.33789 z M -372.32812 103.4043 C -375.53233 105.02412 -371.90486 103.27902 -372.32812 103.4043 z M -372.0332 103.57422 C -372.3226 104.39828 -371.39878 103.22834 -372.0332 103.57422 z M -372.57422 103.55078 C -372.52515 103.62186 -372.61463 103.40332 -372.57422 103.55078 z M -372.4375 103.58594 C -372.43251 103.68006 -372.35291 103.53269 -372.4375 103.58594 z M -372.91992 105.05664 C -371.95907 106.81309 -374.74785 104.90914 -372.91992 105.05664 z M -372.79688 104.9082 C -372.70921 105.05965 -372.84213 104.99783 -372.79688 104.9082 z M -371.93945 105.24805 C -372.23211 105.75892 -371.3723 105.14693 -371.93945 105.24805 z M -372.64453 105.33203 C -372.56344 105.42416 -372.70284 105.32804 -372.64453 105.33203 z M -372.24219 105.54688 C -372.26599 105.65507 -372.34142 105.49316 -372.24219 105.54688 z M -372.25977 105.8125 C -372.28326 105.96875 -372.39915 105.60336 -372.25977 105.8125 z M -372.38086 105.83984 C -372.30017 105.99119 -372.44588 105.80733 -372.38086 105.83984 z M -372.27344 105.96484 C -372.27165 106.13716 -372.35132 105.58086 -372.27344 105.96484 z M -372.49609 105.94531 C -372.29893 106.05194 -372.58195 105.99947 -372.49609 105.94531 z M -372.06055 105.97852 C -372.01764 106.11787 -371.94589 105.8674 -372.06055 105.97852 z M -372.89062 106.02148 C -372.82363 106.15811 -372.9659 105.96211 -372.89062 106.02148 z M -372.92578 106.24023 C -372.98361 106.30204 -372.92506 106.13722 -372.92578 106.24023 z M -372.64453 106.3125 C -372.4983 106.4633 -373.11998 106.13753 -372.64453 106.3125 z M -372.79102 106.79492 C -372.60237 106.97853 -373.18962 106.53218 -372.79102 106.79492 z M -372.86719 106.99023 C -372.15506 107.75269 -373.48188 106.60289 -372.86719 106.99023 z M -372.09375 109.13281 C -372.11192 109.18961 -372.04284 109.10493 -372.09375 109.13281 z M -372.2793 109.49609 C -372.08309 109.62649 -371.98642 109.41159 -372.2793 109.49609 z M -372.41406 113.24805 C -372.3908 113.41108 -372.2117 113.09935 -372.41406 113.24805 z M -372.11719 113.8125 C -372.65263 114.37782 -370.91482 113.38035 -372.10398 113.80365 L -372.11719 113.8125 z M -372.3457 113.93945 C -372.26997 114.17525 -372.28082 113.93048 -372.3457 113.93945 z M -371.6582 114.2168 C -371.49106 114.30447 -372.13975 113.78689 -371.6582 114.2168 z M -371.91602 115.07227 C -371.83097 115.06284 -371.83952 114.98385 -371.91602 115.07227 z M -372.51367 115.24023 C -372.38502 115.34323 -372.61515 115.21268 -372.51367 115.24023 z M -372.21875 116.59961 C -371.89417 116.49947 -372.0556 116.54928 -372.21875 116.59961 z M -371.64453 118.04688 C -371.70166 118.39093 -371.48663 117.65693 -371.64453 118.04688 z M -371.47266 118.88477 L -371.37109 118.80078 L -371.47266 118.88477 z M -371.51172 118.92773 C -371.72461 119.04136 -371.37041 118.91989 -371.51172 118.92773 z M -371.80664 119.01953 C -371.80384 119.18494 -371.72241 118.9743 -371.80664 119.01953 z M -371.55273 119.08203 C -371.79352 121.41359 -371.48759 118.73239 -371.55273 119.08203 z M -371.51953 120.10352 C -371.53146 120.28917 -371.44019 119.78446 -371.51953 120.10352 z M -371.45117 120.16406 C -371.51975 120.40616 -371.36221 120.15588 -371.45117 120.16406 z M -371.29492 120.24609 C -371.3892 120.35249 -371.22521 120.2428 -371.29492 120.24609 z M -372.00391 120.33008 C -371.9557 120.57831 -372.17788 120.20957 -372.00391 120.33008 z M -371.38086 120.5625 C -371.46161 120.79182 -371.2284 120.64738 -371.38086 120.5625 z M -371.23828 120.62305 L -371.09961 120.55859 L -371.23828 120.62305 z M -370.82422 121.10742 C -371.03302 121.24903 -370.74071 121.15976 -370.82422 121.10742 z M -371.02148 121.51172 C -371.06979 121.71168 -370.94602 121.51726 -371.02148 121.51172 z M -371.19922 121.73633 C -371.17625 121.81955 -371.17673 121.55676 -371.19922 121.73633 z M -372.49219 121.90039 C -372.44078 121.95265 -373.02288 121.69702 -372.49219 121.90039 z M -371.85156 126.40625 C -371.86313 126.48639 -371.81546 126.39471 -371.85156 126.40625 z M -371.90039 126.51562 C -372.06296 126.66171 -371.5899 126.31844 -371.90039 126.51562 z M -373.22852 130.96484 L -373.23436 130.7739 L -373.23438 130.77344 L -373.22853 130.96438 L -373.22852 130.96484 z "
       id="rect4487"
       inkscape:connector-curvature="0"
       sodipodi:nodetypes="ccccccccccccccccccccccccccccccccccccccc" />
    <path
       style="fill:url(#linearGradient14);fill-opacity:1;stroke-width:0.10324629"
       d="m -57.452388,176.72966 c 13.82763,0 28.83521,-2.94989 42.66284,-2.94989 13.82762978,0 29.4252,2.35992 43.25282,2.35992 13.82763,0 30.31017,2.06492 44.13779,2.06492 13.82763,0 24.41038,-3.24488 38.238008,-3.24488 13.82763,0 29.72018,-0.88497 43.54781,-0.88497 13.82762,0 29.1302,3.24488 42.95783,3.24488 13.82762,0 22.93542,-2.35991 36.76305,-2.35991 13.82763,0 26.4753,1.76993 40.30293,1.76993 19.40278,2.06937 76.60317,-8.71246 108.10119,-9.6669 55.18452,1.31341 108.10119,23.7935 156.48214,22.0831 37.54564,0.55746 66.77579,-14.76008 101.29762,-16.47047 v 131.69619 l -1067.40474,0 0,-131.23798 c 27.46627,0.0496 39.05753,8.41473 61.98809,13.75601 24.94643,7.10518 45.35715,10.4306 70.30357,9.97625 38.55357,0.45048 69.54762,-24.80143 102.05358,-25.86286 31.75,0.70246 45.35714,5.94063 68.03571,8.91095 23.93849,4.23024 44.853175,-2.12286 67.279762,-3.18429 z"
       id="rect117"
       inkscape:connector-curvature="0"
       sodipodi:nodetypes="cccccccccccccccccccc" />
  </g>
</svg>
