<?xml version="1.0" encoding="UTF-8" standalone="no"?>
<!-- Created with Inkscape (http://www.inkscape.org/) -->

<svg
   xmlns:dc="http://purl.org/dc/elements/1.1/"
   xmlns:cc="http://creativecommons.org/ns#"
   xmlns:rdf="http://www.w3.org/1999/02/22-rdf-syntax-ns#"
   xmlns:svg="http://www.w3.org/2000/svg"
   xmlns="http://www.w3.org/2000/svg"
   xmlns:xlink="http://www.w3.org/1999/xlink"
   xmlns:sodipodi="http://sodipodi.sourceforge.net/DTD/sodipodi-0.dtd"
   xmlns:inkscape="http://www.inkscape.org/namespaces/inkscape"
   width="210mm"
   height="297mm"
   viewBox="0 0 210 297"
   version="1.1"
   id="svg115"
   inkscape:version="0.92.1 r15371"
   sodipodi:docname="ship.svg">
  <defs
     id="defs109">
    <linearGradient
       inkscape:collect="always"
       id="linearGradient12">
      <stop
         style="stop-color:#4d8200;stop-opacity:1;"
         offset="0"
         id="stop8" />
      <stop
         style="stop-color:#654e00;stop-opacity:1"
         offset="1"
         id="stop10" />
    </linearGradient>
    <linearGradient
       inkscape:collect="always"
       xlink:href="#linearGradient12"
       id="linearGradient14"
       x1="100.22855"
       y1="176.80357"
       x2="101.29763"
       y2="240.45554"
       gradientUnits="userSpaceOnUse" />
  </defs>
  <sodipodi:namedview
     id="base"
     pagecolor="#ffffff"
     bordercolor="#666666"
     borderopacity="1.0"
     inkscape:pageopacity="0.0"
     inkscape:pageshadow="2"
     inkscape:zoom="0.175"
     inkscape:cx="-498.55491"
     inkscape:cy="1415.2628"
     inkscape:document-units="mm"
     inkscape:current-layer="layer1"
     showgrid="false"
     inkscape:window-width="1366"
     inkscape:window-height="705"
     inkscape:window-x="-8"
     inkscape:window-y="-8"
     inkscape:window-maximized="1"
     inkscape:snap-global="false" />
  <metadata
     id="metadata112">
    <rdf:RDF>
      <cc:Work
         rdf:about="">
        <dc:format>image/svg+xml</dc:format>
        <dc:type
           rdf:resource="http://purl.org/dc/dcmitype/StillImage" />
        <dc:title />
      </cc:Work>
    </rdf:RDF>
  </metadata>
  <g
     inkscape:label="Layer 1"
     inkscape:groupmode="layer"
     id="layer1">
    <rect
       style="opacity:1;fill:#000000;fill-opacity:1;fill-rule:nonzero;stroke:none;stroke-width:0.20060825;stroke-miterlimit:4;stroke-dasharray:none;stroke-opacity:1"
       id="rect4496"
       width="73.23185"
       height="32.470665"
       x="103.70058"
       y="145.86166" />
    <path
       style="fill:#502d16;fill-opacity:1;stroke-width:0.09239505"
       d="m -321.96891,54.868168 c -5.36544,1.291296 -9.99577,5.08679 -12.54687,9.951176 -1.85195,2.957899 -4.03891,5.765059 -5.22851,9.082029 -0.60097,3.01375 0.0653,6.071111 0.55609,9.04898 1.60556,9.836171 1.94695,19.865057 4.2005,29.596497 1.64338,8.12489 2.78693,16.34112 3.75022,24.57134 2.40154,17.09522 6.82917,33.8555 8.70445,51.03166 0.3924,4.79249 -0.8601,9.49498 -1.30487,14.23666 -0.15873,1.64698 -0.12963,3.48009 0.92595,4.85056 1.32764,1.78396 3.6965,2.60004 5.86413,2.27886 1.73114,-0.13883 3.28863,-0.97077 4.89113,-1.55834 2.71032,-0.69153 5.52066,0.29781 8.24035,-0.28861 1.79406,-0.40677 3.39741,-1.63794 4.16697,-3.32097 1.11167,-2.19039 1.03267,-4.8284 0.18559,-7.09272 -0.89401,-2.81379 -2.1421,-5.52296 -2.70313,-8.43579 -1.94825,-7.97158 -2.59497,-16.17607 -3.3907,-24.32116 -0.62809,-7.36466 -1.3057,-14.74466 -1.19225,-22.14383 0.10108,-3.04932 0.65473,-6.15836 2.1768,-8.83945 1.5953,-3.0278 3.67016,-5.77067 5.81976,-8.42177 2.90351,-3.46814 6.29182,-6.51049 9.95743,-9.15307 3.26616,-2.35941 6.89456,-4.21983 10.71116,-5.50905 1.44554,-0.48963 2.9501,-0.75938 4.42638,-1.13155 2.67404,-0.73381 5.27395,-1.70909 7.87121,-2.6732 3.96468,-1.56157 7.82562,-3.36819 11.70923,-5.11763 1.1519,-0.919 1.05058,-2.809217 0.0647,-3.811715 -0.96209,-0.996601 -2.3673,-1.316652 -3.64865,-1.694712 -2.84153,-0.699249 -5.82712,-0.36825 -8.61618,0.407532 -4.02159,1.004538 -7.87988,2.560328 -11.89793,3.577238 -1.98869,0.513747 -3.95625,1.105837 -5.89044,1.797467 -3.03871,1.04029 -6.08812,2.09735 -8.9598,3.54842 -2.02868,1.08228 -4.01576,2.25516 -6.15154,3.12107 -1.27021,0.53792 -2.49341,1.21345 -3.51287,2.15355 -1.85831,1.62079 -3.41431,3.54581 -5.1497,5.29106 -1.66335,1.73065 -3.26951,3.55721 -5.24932,4.93821 -1.19196,0.80528 -2.70626,1.44103 -4.15039,0.98438 -0.98898,-0.28978 -1.72576,-1.10396 -2.12,-2.03175 -0.64915,-1.43776 -0.75089,-3.03701 -1.14583,-4.54935 -0.97671,-4.4581 -1.74965,-8.95718 -2.50326,-13.45719 -0.68467,-3.648167 -1.41377,-7.302825 -1.62292,-11.016765 -0.49235,-5.931861 -1.19893,-11.84293 -1.82754,-17.761212 -0.24402,-2.302478 -0.54613,-4.59916 -0.77381,-6.902979 -0.13473,-1.76348 0.30625,-3.65828 1.58539,-4.941258 0.80794,-0.868897 1.91864,-1.331608 2.99208,-1.776338 0.97419,-0.432782 2.03215,-0.974812 2.51411,-1.980022 0.42395,-1.119024 -0.47379,-2.606931 -1.72712,-2.536258 z"
       id="rect4626-5-1-99"
       inkscape:connector-curvature="0"
       sodipodi:nodetypes="ccccccccccccccccccccccccccccccccccccc" />
    <path
       style="fill:url(#linearGradient14);fill-opacity:1;stroke-width:0.10324629"
       d="m -57.452388,176.72966 c 13.82763,0 28.83521,-2.94989 42.66284,-2.94989 13.82762978,0 29.4252,2.35992 43.25282,2.35992 13.82763,0 30.31017,2.06492 44.13779,2.06492 13.82763,0 24.41038,-3.24488 38.238008,-3.24488 13.82763,0 29.72018,-0.88497 43.54781,-0.88497 13.82762,0 29.1302,3.24488 42.95783,3.24488 13.82762,0 22.93542,-2.35991 36.76305,-2.35991 13.82763,0 26.4753,1.76993 40.30293,1.76993 19.40278,2.06937 76.60317,-8.71246 108.10119,-9.6669 55.18452,1.31341 108.10119,23.7935 156.48214,22.0831 37.54564,0.55746 66.77579,-14.76008 101.29762,-16.47047 v 131.69619 l -1067.40474,0 0,-131.23798 c 27.46627,0.0496 39.05753,8.41473 61.98809,13.75601 24.94643,7.10518 45.35715,10.4306 70.30357,9.97625 38.55357,0.45048 69.54762,-24.80143 102.05358,-25.86286 31.75,0.70246 45.35714,5.94063 68.03571,8.91095 23.93849,4.23024 44.853175,-2.12286 67.279762,-3.18429 z"
       id="rect117"
       inkscape:connector-curvature="0"
       sodipodi:nodetypes="cccccccccccccccccccc" />
    <path
       style="fill:#4b8800;fill-opacity:1;stroke-width:0.09239505"
       d="m -303.48413,29.92923 c -13.45043,0.785445 -27.1794,3.67793 -38.66143,11.025659 -8.18893,6.014602 -15.44889,13.274438 -21.66311,21.302288 -0.97084,1.306891 -2.06302,2.67171 -1.97623,4.394711 -0.3947,5.85666 3.37699,11.546149 8.651,13.934281 7.13555,6.07772 11.85248,14.775479 20.08923,19.589161 6.66707,3.50954 14.39691,3.21843 21.68655,3.97034 6.73778,0.81071 12.91029,4.07582 19.67915,4.72735 4.8205,0.62501 9.69867,1.23339 14.2593,3.00738 4.20384,1.31936 8.44471,3.12033 12.9276,2.94164 6.13063,-0.91809 13.63309,-3.76663 14.03566,-9.77134 0.56329,-3.89146 5.24716,-7.404181 7.35672,-10.986099 3.93327,-6.766969 4.46034,-6.023739 5.37404,-14.744651 0.0701,-3.062459 0.21618,-6.040162 -0.71616,-8.798092 -2.2329,-5.29848 -3.37863,-11.350286 -7.64192,-15.520362 -7.23071,-7.88058 -17.12122,-12.494456 -26.80385,-16.605486 -8.19092,-3.528195 -16.47335,-7.33805 -25.40905,-8.453108 -0.39567,-0.01488 -0.79159,-0.01762 -1.1875,-0.01367 z"
       id="path4629-5"
       inkscape:connector-curvature="0"
       sodipodi:nodetypes="cssssssssssccsssccc" />
  </g>
</svg>
